<svg width="121" height="41" viewBox="0 0 121 41" fill="none" xmlns="http://www.w3.org/2000/svg">
<path d="M110.635 0.90638H10.0347C9.66798 0.90638 9.30568 0.90638 8.93995 0.90838C8.6338 0.91038 8.33009 0.91619 8.021 0.92108C7.34951 0.928982 6.67961 0.988056 6.0171 1.09779C5.35552 1.20991 4.71467 1.4213 4.11622 1.72479C3.5185 2.03085 2.97235 2.42855 2.49757 2.90345C2.0203 3.37702 1.62246 3.9244 1.31935 4.52454C1.0154 5.12349 0.804641 5.76532 0.69435 6.42786C0.583011 7.08957 0.523098 7.7589 0.51515 8.42986C0.50587 8.73646 0.50489 9.04408 0.5 9.35072V32.465C0.50489 32.7755 0.50587 33.0763 0.51515 33.3869C0.523101 34.0578 0.583013 34.7271 0.69435 35.3888C0.804336 36.0517 1.01511 36.6939 1.31935 37.2931C1.62233 37.8913 2.02022 38.4364 2.49757 38.9074C2.97054 39.3844 3.51705 39.7824 4.11622 40.0861C4.71467 40.3904 5.35545 40.603 6.0171 40.7169C6.67972 40.8257 7.34956 40.8848 8.021 40.8937C8.33009 40.9005 8.6338 40.9044 8.93995 40.9044C9.30567 40.9064 9.668 40.9064 10.0347 40.9064H110.635C110.994 40.9064 111.359 40.9064 111.719 40.9044C112.023 40.9044 112.336 40.9005 112.641 40.8937C113.311 40.8853 113.979 40.8262 114.641 40.7169C115.304 40.6022 115.948 40.3896 116.549 40.0861C117.147 39.7822 117.693 39.3842 118.166 38.9074C118.642 38.4346 119.041 37.8898 119.348 37.2931C119.65 36.6935 119.858 36.0513 119.967 35.3888C120.078 34.727 120.14 34.0579 120.152 33.3869C120.156 33.0763 120.156 32.7755 120.156 32.465C120.164 32.1017 120.164 31.7404 120.164 31.3712V10.4425C120.164 10.0763 120.164 9.71302 120.156 9.35072C120.156 9.04408 120.156 8.73646 120.152 8.42982C120.14 7.7588 120.078 7.08962 119.967 6.42782C119.858 5.76566 119.649 5.12388 119.348 4.5245C118.73 3.32158 117.752 2.34241 116.549 1.7247C115.948 1.42195 115.304 1.21062 114.641 1.0977C113.98 0.987483 113.311 0.928388 112.641 0.92094C112.336 0.91606 112.023 0.9102 111.719 0.90825C111.359 0.90625 110.994 0.90625 110.635 0.90625V0.90638Z" fill="#A6A6A6"/>
<path d="M8.94487 40.0312C8.64019 40.0312 8.34287 40.0274 8.04058 40.0205C7.41436 40.0124 6.7896 39.9579 6.17144 39.8574C5.59503 39.7582 5.03664 39.5735 4.5147 39.3096C3.99754 39.0478 3.52585 38.7045 3.1177 38.2929C2.70364 37.8862 2.35891 37.4145 2.09719 36.8965C1.83258 36.375 1.64945 35.8162 1.55419 35.2393C1.45131 34.6194 1.39565 33.9926 1.38769 33.3643C1.38135 33.1534 1.37305 32.4512 1.37305 32.4512V9.35059C1.37305 9.35059 1.38189 8.65918 1.38774 8.45605C1.39536 7.82873 1.4507 7.2029 1.55327 6.58398C1.64871 6.0055 1.83197 5.445 2.09673 4.92188C2.35749 4.40419 2.7003 3.93211 3.11187 3.52393C3.52297 3.11187 3.99617 2.76685 4.51421 2.50146C5.03495 2.23834 5.59228 2.05498 6.16753 1.95752C6.78772 1.85609 7.41465 1.80125 8.04304 1.79346L8.94536 1.78125H111.714L112.627 1.79395C113.25 1.80135 113.871 1.8557 114.485 1.95654C115.066 2.05523 115.63 2.23987 116.156 2.50439C117.194 3.03924 118.039 3.88541 118.571 4.92432C118.832 5.44383 119.012 5.99976 119.107 6.57324C119.21 7.19724 119.268 7.82799 119.28 8.46045C119.283 8.74365 119.283 9.04785 119.283 9.35059C119.291 9.72559 119.291 10.0825 119.291 10.4424V31.371C119.291 31.7344 119.291 32.0889 119.283 32.4463C119.283 32.7715 119.283 33.0693 119.279 33.3759C119.268 33.9971 119.211 34.6166 119.108 35.2295C119.015 35.8105 118.833 36.3738 118.568 36.8994C118.305 37.4119 117.962 37.8795 117.553 38.2851C117.144 38.6989 116.672 39.0442 116.153 39.3077C115.628 39.5736 115.066 39.759 114.485 39.8574C113.867 39.9584 113.242 40.0129 112.616 40.0205C112.323 40.0274 112.017 40.0312 111.719 40.0312L110.635 40.0332L8.94487 40.0312Z" fill="black"/>
<path d="M25.269 21.2076C25.2797 20.3729 25.5014 19.5545 25.9135 18.8286C26.3255 18.1026 26.9145 17.4927 27.6256 17.0555C27.1738 16.4103 26.5779 15.8794 25.885 15.5048C25.1922 15.1303 24.4216 14.9224 23.6344 14.8978C21.9552 14.7216 20.3272 15.9026 19.4715 15.9026C18.5992 15.9026 17.2817 14.9153 15.863 14.9445C14.9453 14.9742 14.051 15.241 13.2671 15.7191C12.4832 16.1971 11.8365 16.8701 11.3901 17.6724C9.45607 21.0208 10.8987 25.9418 12.7513 28.6485C13.6782 29.9738 14.7615 31.4543 16.1789 31.4018C17.566 31.3442 18.084 30.5173 19.7583 30.5173C21.4171 30.5173 21.9031 31.4018 23.3493 31.3684C24.8377 31.3442 25.7754 30.0371 26.6698 28.6992C27.3358 27.7549 27.8483 26.7112 28.1882 25.6067C27.3235 25.241 26.5856 24.6288 26.0665 23.8465C25.5474 23.0642 25.27 22.1464 25.269 21.2076Z" fill="white"/>
<path d="M22.5373 13.1176C23.3489 12.1434 23.7487 10.8912 23.6518 9.62695C22.412 9.75717 21.2668 10.3497 20.4443 11.2866C20.0421 11.7442 19.7341 12.2767 19.5379 12.8534C19.3416 13.4302 19.261 14.04 19.3006 14.648C19.9207 14.6543 20.5342 14.5199 21.0949 14.2548C21.6555 13.9898 22.1487 13.6009 22.5373 13.1176Z" fill="white"/>
<path d="M42.8022 28.0459H38.0688L36.9321 31.4024H34.9272L39.4106 18.9844H41.4936L45.977 31.4024H43.938L42.8022 28.0459ZM38.5591 26.4971H42.3111L40.4615 21.0498H40.4097L38.5591 26.4971Z" fill="white"/>
<path d="M55.6597 26.8757C55.6597 29.6892 54.1538 31.4968 51.8814 31.4968C51.3057 31.5269 50.7332 31.3943 50.2294 31.1142C49.7256 30.834 49.3109 30.4177 49.0327 29.9128H48.9897V34.3972H47.1313V22.3484H48.9302V23.8542H48.9644C49.2553 23.3517 49.6771 22.9376 50.1847 22.6557C50.6923 22.3739 51.2669 22.2349 51.8472 22.2536C54.145 22.2536 55.6597 24.07 55.6597 26.8757ZM53.7495 26.8757C53.7495 25.0427 52.8023 23.8376 51.357 23.8376C49.937 23.8376 48.982 25.0681 48.982 26.8757C48.982 28.6999 49.937 29.9216 51.357 29.9216C52.8023 29.9216 53.7495 28.7253 53.7495 26.8757Z" fill="white"/>
<path d="M65.6245 26.8757C65.6245 29.6892 64.1187 31.4968 61.8462 31.4968C61.2706 31.5269 60.6981 31.3943 60.1943 31.1142C59.6905 30.834 59.2758 30.4177 58.9976 29.9128H58.9546V34.3972H57.0962V22.3483H58.895V23.8542H58.9292C59.2201 23.3517 59.6419 22.9375 60.1495 22.6557C60.6571 22.3739 61.2317 22.2349 61.812 22.2536C64.1099 22.2536 65.6245 24.07 65.6245 26.8757ZM63.7144 26.8757C63.7144 25.0427 62.7671 23.8376 61.3218 23.8376C59.9019 23.8376 58.9468 25.0681 58.9468 26.8757C58.9468 28.6999 59.9019 29.9216 61.3218 29.9216C62.7671 29.9216 63.7144 28.7253 63.7144 26.8757H63.7144Z" fill="white"/>
<path d="M72.2105 27.9424C72.3482 29.1739 73.5445 29.9824 75.1792 29.9824C76.7456 29.9824 77.8726 29.1738 77.8726 28.0635C77.8726 27.0996 77.1929 26.5225 75.5835 26.127L73.9742 25.7393C71.6939 25.1885 70.6353 24.1221 70.6353 22.3916C70.6353 20.249 72.5025 18.7773 75.1538 18.7773C77.7778 18.7773 79.5767 20.249 79.6372 22.3916H77.7612C77.6489 21.1523 76.6245 20.4043 75.1274 20.4043C73.6304 20.4043 72.606 21.1611 72.606 22.2627C72.606 23.1406 73.2603 23.6572 74.8608 24.0527L76.229 24.3886C78.7769 24.9912 79.8355 26.0146 79.8355 27.831C79.8355 30.1543 77.9849 31.6093 75.0415 31.6093C72.2876 31.6093 70.4282 30.1884 70.3081 27.9423L72.2105 27.9424Z" fill="white"/>
<path d="M83.8462 20.2061V22.3486H85.5679V23.8203H83.8462V28.8115C83.8462 29.5869 84.1909 29.9482 84.9477 29.9482C85.1521 29.9447 85.3562 29.9303 85.5591 29.9052V31.3681C85.2188 31.4317 84.8729 31.4605 84.5268 31.4541C82.6938 31.4541 81.979 30.7656 81.979 29.0097V23.8203H80.6626V22.3486H81.979V20.2061H83.8462Z" fill="white"/>
<path d="M86.5649 26.876C86.5649 24.0273 88.2427 22.2373 90.8589 22.2373C93.4839 22.2373 95.1538 24.0273 95.1538 26.876C95.1538 29.7324 93.4927 31.5146 90.8589 31.5146C88.226 31.5146 86.5649 29.7324 86.5649 26.876ZM93.2602 26.876C93.2602 24.9219 92.3647 23.7686 90.8589 23.7686C89.353 23.7686 88.4585 24.9307 88.4585 26.876C88.4585 28.8379 89.353 29.9824 90.8589 29.9824C92.3647 29.9824 93.2602 28.8379 93.2602 26.876H93.2602Z" fill="white"/>
<path d="M96.686 22.3483H98.4585V23.8893H98.5015C98.6214 23.408 98.9034 22.9826 99.3 22.6848C99.6966 22.3869 100.184 22.2346 100.679 22.2535C100.893 22.2528 101.107 22.276 101.316 22.3229V24.0611C101.046 23.9785 100.764 23.9406 100.481 23.9488C100.211 23.9379 99.9418 23.9855 99.692 24.0884C99.4421 24.1913 99.2175 24.347 99.0335 24.5449C98.8496 24.7428 98.7106 24.9781 98.6262 25.2348C98.5417 25.4915 98.5139 25.7634 98.5444 26.0318V31.402H96.686L96.686 22.3483Z" fill="white"/>
<path d="M109.884 28.7432C109.634 30.3867 108.034 31.5146 105.986 31.5146C103.352 31.5146 101.717 29.75 101.717 26.9189C101.717 24.0791 103.361 22.2373 105.908 22.2373C108.413 22.2373 109.988 23.958 109.988 26.7031V27.3398H103.593V27.4521C103.564 27.7853 103.605 28.121 103.716 28.4369C103.826 28.7527 104.002 29.0415 104.232 29.284C104.463 29.5266 104.742 29.7173 105.052 29.8436C105.361 29.9699 105.695 30.0289 106.029 30.0166C106.468 30.0577 106.909 29.956 107.285 29.7266C107.662 29.4972 107.955 29.1522 108.12 28.7432L109.884 28.7432ZM103.602 26.041H108.128C108.145 25.7414 108.1 25.4416 107.995 25.1604C107.89 24.8792 107.729 24.6227 107.52 24.4069C107.312 24.1911 107.061 24.0208 106.783 23.9066C106.506 23.7923 106.208 23.7367 105.908 23.7432C105.605 23.7414 105.305 23.7995 105.025 23.9142C104.745 24.029 104.49 24.1981 104.276 24.4117C104.062 24.6253 103.892 24.8793 103.776 25.1589C103.66 25.4386 103.601 25.7384 103.602 26.041V26.041Z" fill="white"/>
<path d="M38.3262 9.63665C38.7158 9.60869 39.1067 9.66755 39.4709 9.80899C39.835 9.95042 40.1632 10.1709 40.4317 10.4545C40.7003 10.7382 40.9026 11.0778 41.024 11.4491C41.1454 11.8204 41.1829 12.214 41.1338 12.6015C41.1338 14.5077 40.1035 15.6035 38.3262 15.6035H36.1709V9.63665H38.3262ZM37.0976 14.7597H38.2226C38.5011 14.7763 38.7797 14.7306 39.0382 14.626C39.2967 14.5214 39.5287 14.3605 39.7172 14.1549C39.9057 13.9493 40.046 13.7043 40.1278 13.4377C40.2097 13.1711 40.2311 12.8896 40.1904 12.6137C40.2281 12.3388 40.2046 12.059 40.1215 11.7944C40.0383 11.5297 39.8977 11.2867 39.7096 11.0828C39.5216 10.8789 39.2907 10.719 39.0337 10.6148C38.7766 10.5106 38.4996 10.4645 38.2226 10.4799H37.0976V14.7597Z" fill="white"/>
<path d="M42.1807 13.35C42.1524 13.0541 42.1862 12.7556 42.2801 12.4735C42.3739 12.1914 42.5257 11.9321 42.7256 11.7121C42.9256 11.4921 43.1693 11.3164 43.4411 11.1961C43.713 11.0758 44.007 11.0137 44.3042 11.0137C44.6015 11.0137 44.8955 11.0758 45.1673 11.1961C45.4392 11.3164 45.6829 11.4921 45.8828 11.7121C46.0828 11.9321 46.2345 12.1914 46.3284 12.4735C46.4222 12.7556 46.4561 13.0541 46.4278 13.35C46.4566 13.6463 46.4232 13.9453 46.3296 14.2278C46.236 14.5103 46.0843 14.7701 45.8843 14.9905C45.6843 15.211 45.4404 15.3871 45.1683 15.5076C44.8962 15.6282 44.6019 15.6904 44.3042 15.6904C44.0066 15.6904 43.7123 15.6282 43.4402 15.5076C43.168 15.3871 42.9241 15.211 42.7241 14.9905C42.5242 14.7701 42.3725 14.5103 42.2789 14.2278C42.1853 13.9453 42.1519 13.6463 42.1807 13.35ZM45.5137 13.35C45.5137 12.374 45.0752 11.8032 44.3057 11.8032C43.5332 11.8032 43.0987 12.374 43.0987 13.3501C43.0987 14.334 43.5333 14.9004 44.3057 14.9004C45.0752 14.9003 45.5137 14.33 45.5137 13.35H45.5137Z" fill="white"/>
<path d="M52.0732 15.6035H51.1514L50.2207 12.2871H50.1504L49.2236 15.6035H48.3105L47.0693 11.1006H47.9707L48.7773 14.5366H48.8438L49.7695 11.1006H50.6221L51.5479 14.5366H51.6182L52.4209 11.1006H53.3096L52.0732 15.6035Z" fill="white"/>
<path d="M54.3535 11.1001H55.209V11.8155H55.2754C55.388 11.5586 55.5781 11.3432 55.8189 11.1994C56.0598 11.0556 56.3395 10.9905 56.6191 11.0132C56.8382 10.9967 57.0582 11.0298 57.2628 11.1099C57.4674 11.19 57.6514 11.3151 57.8011 11.4759C57.9508 11.6368 58.0623 11.8292 58.1275 12.039C58.1927 12.2489 58.2099 12.4707 58.1777 12.688V15.603H57.2891V12.9112C57.2891 12.1876 56.9746 11.8277 56.3174 11.8277C56.1686 11.8208 56.0201 11.8461 55.8821 11.9019C55.744 11.9577 55.6197 12.0428 55.5175 12.1511C55.4154 12.2595 55.3379 12.3887 55.2904 12.5298C55.2429 12.671 55.2264 12.8207 55.2422 12.9688V15.6031H54.3535L54.3535 11.1001Z" fill="white"/>
<path d="M59.5938 9.34277H60.4824V15.6035H59.5938V9.34277Z" fill="white"/>
<path d="M61.7178 13.3501C61.6895 13.0542 61.7234 12.7556 61.8172 12.4735C61.9111 12.1915 62.0629 11.9321 62.2628 11.7121C62.4628 11.4921 62.7065 11.3164 62.9784 11.1961C63.2503 11.0758 63.5443 11.0137 63.8416 11.0137C64.1389 11.0137 64.4329 11.0758 64.7047 11.1961C64.9766 11.3164 65.2203 11.4921 65.4203 11.7121C65.6203 11.9321 65.772 12.1915 65.8659 12.4735C65.9598 12.7556 65.9936 13.0542 65.9653 13.3501C65.9942 13.6464 65.9607 13.9454 65.8671 14.2279C65.7734 14.5104 65.6217 14.7702 65.4217 14.9906C65.2217 15.211 64.9778 15.3872 64.7057 15.5077C64.4335 15.6282 64.1392 15.6905 63.8416 15.6905C63.5439 15.6905 63.2496 15.6282 62.9775 15.5077C62.7053 15.3872 62.4614 15.211 62.2614 14.9906C62.0614 14.7702 61.9097 14.5104 61.8161 14.2279C61.7225 13.9454 61.689 13.6464 61.7178 13.3501ZM65.0508 13.3501C65.0508 12.3741 64.6123 11.8033 63.8428 11.8033C63.0703 11.8033 62.6358 12.3741 62.6358 13.3501C62.6358 14.334 63.0704 14.9004 63.8428 14.9004C64.6123 14.9004 65.0508 14.3301 65.0508 13.3501H65.0508Z" fill="white"/>
<path d="M66.9009 14.3301C66.9009 13.5195 67.5044 13.0522 68.5757 12.9858L69.7954 12.9155V12.5269C69.7954 12.0513 69.481 11.7827 68.8735 11.7827C68.3774 11.7827 68.0337 11.9648 67.9351 12.2832H67.0747C67.1655 11.5098 67.8931 11.0137 68.9146 11.0137C70.0435 11.0137 70.6802 11.5757 70.6802 12.5269V15.6035H69.8247V14.9707H69.7544C69.6117 15.1977 69.4113 15.3827 69.1737 15.507C68.936 15.6312 68.6697 15.6901 68.4019 15.6777C68.2128 15.6974 68.0218 15.6772 67.841 15.6185C67.6602 15.5598 67.4938 15.4639 67.3524 15.3369C67.211 15.2099 67.0977 15.0547 67.02 14.8813C66.9422 14.7079 66.9016 14.5201 66.9009 14.3301ZM69.7954 13.9453V13.5688L68.6958 13.6392C68.0757 13.6807 67.7944 13.8916 67.7944 14.2886C67.7944 14.6938 68.146 14.9297 68.6294 14.9297C68.7711 14.944 68.9142 14.9297 69.0502 14.8876C69.1862 14.8455 69.3123 14.7765 69.4211 14.6847C69.5299 14.5928 69.6191 14.48 69.6834 14.353C69.7477 14.226 69.7858 14.0873 69.7954 13.9453Z" fill="white"/>
<path d="M71.8481 13.3501C71.8481 11.9273 72.5796 11.0259 73.7173 11.0259C73.9987 11.0129 74.278 11.0803 74.5225 11.2202C74.767 11.3601 74.9667 11.5667 75.0981 11.8159H75.1646V9.34277H76.0532V15.6035H75.2017V14.8921H75.1314C74.9897 15.1396 74.7831 15.3436 74.5339 15.4821C74.2846 15.6206 74.0022 15.6882 73.7173 15.6777C72.5718 15.6778 71.8481 14.7764 71.8481 13.3501ZM72.7661 13.3501C72.7661 14.3052 73.2163 14.8799 73.9693 14.8799C74.7183 14.8799 75.1812 14.2969 75.1812 13.354C75.1812 12.4155 74.7134 11.8242 73.9693 11.8242C73.2212 11.8242 72.7661 12.4028 72.7661 13.3501H72.7661Z" fill="white"/>
<path d="M79.73 13.35C79.7017 13.0541 79.7356 12.7556 79.8294 12.4735C79.9232 12.1914 80.075 11.9321 80.2749 11.7121C80.4749 11.4921 80.7186 11.3164 80.9904 11.1961C81.2623 11.0758 81.5563 11.0137 81.8536 11.0137C82.1508 11.0137 82.4448 11.0758 82.7167 11.1961C82.9885 11.3164 83.2322 11.4921 83.4322 11.7121C83.6321 11.9321 83.7839 12.1914 83.8777 12.4735C83.9715 12.7556 84.0054 13.0541 83.9771 13.35C84.0059 13.6463 83.9725 13.9453 83.8789 14.2278C83.7853 14.5103 83.6336 14.7701 83.4336 14.9905C83.2336 15.211 82.9897 15.3871 82.7176 15.5076C82.4455 15.6282 82.1512 15.6904 81.8536 15.6904C81.5559 15.6904 81.2616 15.6282 80.9895 15.5076C80.7173 15.3871 80.4735 15.211 80.2735 14.9905C80.0735 14.7701 79.9218 14.5103 79.8282 14.2278C79.7346 13.9453 79.7012 13.6463 79.73 13.35ZM83.063 13.35C83.063 12.374 82.6245 11.8032 81.855 11.8032C81.0826 11.8032 80.648 12.374 80.648 13.3501C80.648 14.334 81.0826 14.9004 81.855 14.9004C82.6245 14.9003 83.063 14.33 83.063 13.35Z" fill="white"/>
<path d="M85.1694 11.1001H86.0249V11.8155H86.0913C86.204 11.5586 86.394 11.3432 86.6348 11.1994C86.8757 11.0556 87.1555 10.9905 87.4351 11.0132C87.6542 10.9967 87.8742 11.0298 88.0788 11.1099C88.2834 11.19 88.4673 11.3151 88.617 11.4759C88.7667 11.6368 88.8783 11.8292 88.9435 12.039C89.0087 12.2489 89.0258 12.4707 88.9937 12.688V15.603H88.105V12.9112C88.105 12.1876 87.7905 11.8277 87.1333 11.8277C86.9846 11.8208 86.836 11.8461 86.698 11.9019C86.5599 11.9577 86.4356 12.0428 86.3335 12.1511C86.2313 12.2595 86.1539 12.3887 86.1063 12.5298C86.0588 12.671 86.0423 12.8207 86.0581 12.9688V15.6031H85.1694V11.1001Z" fill="white"/>
<path d="M94.0151 9.97949V11.1211H94.9907V11.8696H94.0151V14.1851C94.0151 14.6567 94.2095 14.8633 94.6519 14.8633C94.7651 14.8629 94.8783 14.8561 94.9907 14.8428V15.583C94.8311 15.6116 94.6694 15.6267 94.5073 15.6284C93.519 15.6284 93.1255 15.2808 93.1255 14.4126V11.8696H92.4106V11.1211H93.1255V9.97949H94.0151Z" fill="white"/>
<path d="M96.2046 9.34277H97.0854V11.8242H97.1558C97.2739 11.5649 97.4691 11.3483 97.7148 11.204C97.9605 11.0596 98.2447 10.9945 98.5288 11.0176C98.7467 11.0057 98.9646 11.0421 99.1669 11.1242C99.3692 11.2062 99.5508 11.3319 99.699 11.4922C99.8471 11.6525 99.958 11.8436 100.024 12.0517C100.09 12.2599 100.109 12.48 100.08 12.6963V15.6035H99.19V12.9155C99.19 12.1963 98.855 11.832 98.2271 11.832C98.0743 11.8195 97.9207 11.8405 97.7769 11.8935C97.6332 11.9466 97.5027 12.0304 97.3947 12.1392C97.2867 12.2479 97.2038 12.3789 97.1517 12.5231C97.0997 12.6672 97.0797 12.821 97.0933 12.9736V15.6035H96.2046L96.2046 9.34277Z" fill="white"/>
<path d="M105.261 14.3878C105.14 14.7993 104.879 15.1553 104.522 15.3934C104.165 15.6316 103.736 15.7367 103.31 15.6905C103.013 15.6983 102.718 15.6415 102.446 15.524C102.173 15.4065 101.93 15.231 101.732 15.0099C101.534 14.7888 101.387 14.5272 101.3 14.2434C101.213 13.9596 101.189 13.6603 101.23 13.3663C101.19 13.0714 101.215 12.7715 101.301 12.4868C101.388 12.2021 101.534 11.9394 101.731 11.7163C101.928 11.4932 102.171 11.315 102.442 11.1938C102.714 11.0726 103.009 11.0112 103.306 11.0137C104.559 11.0137 105.315 11.8697 105.315 13.2837V13.5938H102.135V13.6436C102.121 13.8089 102.142 13.9752 102.196 14.132C102.25 14.2887 102.337 14.4324 102.449 14.5539C102.562 14.6753 102.699 14.7719 102.852 14.8373C103.004 14.9026 103.169 14.9355 103.334 14.9336C103.547 14.9592 103.762 14.9209 103.953 14.8237C104.144 14.7265 104.301 14.5747 104.406 14.3877L105.261 14.3878ZM102.135 12.9366H104.41C104.421 12.7855 104.4 12.6337 104.349 12.491C104.298 12.3482 104.218 12.2178 104.114 12.1079C104.009 11.998 103.883 11.9112 103.743 11.8531C103.603 11.7949 103.453 11.7666 103.301 11.7701C103.147 11.7682 102.995 11.797 102.853 11.855C102.71 11.9129 102.581 11.9988 102.472 12.1075C102.364 12.2162 102.278 12.3456 102.22 12.488C102.162 12.6304 102.133 12.7829 102.135 12.9366H102.135Z" fill="white"/>
</svg>
