<svg width="52" height="24" viewBox="0 0 52 24" fill="none" xmlns="http://www.w3.org/2000/svg">
<path fill-rule="evenodd" clip-rule="evenodd" d="M26 14.9946C26.1893 15.2252 33.2751 23.8004 39.9722 23.8004C46.7606 23.8004 50.6039 16.9653 50.6039 16.9653C53.2492 12.2234 50.9036 7.58074 50.9036 7.58074C50.9036 7.58074 47.5095 0.199463 39.9722 0.199463C32.5423 0.199463 26.1792 8.86064 26 9.10661C25.8208 8.86064 19.4577 0.199463 12.0278 0.199463C4.49075 0.199463 1.0963 7.58074 1.0963 7.58074C1.0963 7.58074 -1.24934 12.2234 1.39593 16.9653C1.39593 16.9653 5.23939 23.8004 12.0278 23.8004C18.7248 23.8004 25.8106 15.2252 26 14.9946ZM12.3127 4.32112C7.67001 4.32112 5.69401 8.09925 5.69401 8.09925C5.69401 8.09925 3.57027 11.4827 5.69401 15.8294C7.81827 20.1761 12.2391 19.7808 12.2391 19.7808C12.2391 19.7808 14.6443 20.1264 18.496 16.8108C19.8308 15.6618 21.3392 14.0731 22.9815 11.8779C22.9815 11.8779 16.9559 4.32112 12.3127 4.32112ZM39.9522 4.32112C44.5949 4.32112 46.5709 8.09925 46.5709 8.09925C46.5709 8.09925 48.6945 11.4827 46.5709 15.8294C44.4467 20.1761 40.0258 19.7808 40.0258 19.7808C40.0258 19.7808 37.6206 20.1264 33.7689 16.8108C32.4342 15.6618 30.9257 14.0731 29.2834 11.8779C29.2834 11.8779 35.309 4.32112 39.9522 4.32112Z" fill="url(#paint0_linear_1061_331)"/>
<defs>
<linearGradient id="paint0_linear_1061_331" x1="23.1372" y1="24.1995" x2="27.1372" y2="0.199462" gradientUnits="userSpaceOnUse">
<stop stop-color="#FB923C"/>
<stop offset="0.496353" stop-color="#EF4444"/>
<stop offset="1" stop-color="#701A75"/>
</linearGradient>
</defs>
</svg>
