<svg width="1996" height="807" viewBox="0 0 1996 807" fill="none" xmlns="http://www.w3.org/2000/svg">
<path d="M710 355.5C710 551.837 551.061 711 355 711C158.939 711 0 551.837 0 355.5C0 159.163 158.939 0 355 0C551.061 0 710 159.163 710 355.5Z" fill="#F59E0B"/>
<path d="M1996 508.5C1996 673.357 1862.58 807 1698 807C1533.42 807 1400 673.357 1400 508.5C1400 343.643 1533.42 210 1698 210C1862.58 210 1996 343.643 1996 508.5Z" fill="#7E22CE"/>
<path d="M1739 363C1739 405.526 1704.53 440 1662 440C1619.47 440 1585 405.526 1585 363C1585 320.474 1619.47 286 1662 286C1704.53 286 1739 320.474 1739 363Z" fill="#A855F7"/>
<path d="M590 197.5C590 233.675 560.675 263 524.5 263C488.325 263 459 233.675 459 197.5C459 161.325 488.325 132 524.5 132C560.675 132 590 161.325 590 197.5Z" fill="#FBBF24"/>
</svg>
