<svg width="115" height="116" viewBox="0 0 115 116" fill="none" xmlns="http://www.w3.org/2000/svg">
<path d="M115 57.7651C115 89.5215 89.2564 115.265 57.5 115.265C25.7436 115.265 0 89.5215 0 57.7651C0 26.0088 25.7436 0.265137 57.5 0.265137C89.2564 0.265137 115 26.0088 115 57.7651Z" fill="#BAE6FD"/>
<path fill-rule="evenodd" clip-rule="evenodd" d="M57.5 111.671C87.2716 111.671 111.406 87.5367 111.406 57.7651C111.406 27.9935 87.2716 3.85889 57.5 3.85889C27.7284 3.85889 3.59375 27.9935 3.59375 57.7651C3.59375 87.5367 27.7284 111.671 57.5 111.671ZM57.5 115.265C89.2564 115.265 115 89.5215 115 57.7651C115 26.0088 89.2564 0.265137 57.5 0.265137C25.7436 0.265137 0 26.0088 0 57.7651C0 89.5215 25.7436 115.265 57.5 115.265Z" fill="white"/>
</svg>
