<svg width="209" height="155" viewBox="0 0 209 155" fill="none" xmlns="http://www.w3.org/2000/svg">
<path d="M184.206 100.994C184.206 130.32 143.117 154.094 92.4301 154.094C41.7434 154.094 0.653809 130.32 0.653809 100.994C0.653809 71.6673 41.7434 47.8936 92.4301 47.8936C143.117 47.8936 184.206 71.6673 184.206 100.994Z" fill="#FBBF24"/>
<path d="M208.758 19.8365C208.758 30.4837 193.84 39.1149 175.438 39.1149C157.036 39.1149 142.118 30.4837 142.118 19.8365C142.118 9.18934 157.036 0.558105 175.438 0.558105C193.84 0.558105 208.758 9.18934 208.758 19.8365Z" fill="white"/>
<path fill-rule="evenodd" clip-rule="evenodd" d="M175.438 36.9949C191.784 36.9949 205.072 29.3246 205.072 19.8365C205.072 10.3484 191.784 2.67811 175.438 2.67811C159.092 2.67811 145.803 10.3484 145.803 19.8365C145.803 29.3246 159.092 36.9949 175.438 36.9949ZM175.438 39.1149C193.84 39.1149 208.758 30.4837 208.758 19.8365C208.758 9.18934 193.84 0.558105 175.438 0.558105C157.036 0.558105 142.118 9.18934 142.118 19.8365C142.118 30.4837 157.036 39.1149 175.438 39.1149Z" fill="#BAE6FD"/>
</svg>
