<svg width="97" height="46" viewBox="0 0 97 46" fill="none" xmlns="http://www.w3.org/2000/svg">
<path d="M73.4965 0.100098C68.1029 0.100098 62.2293 2.86887 56.0196 8.3264C53.0747 10.9031 50.53 13.6719 48.6255 15.8965C48.6255 15.8965 48.6255 15.8965 48.6255 15.9125C48.6255 15.9125 48.6255 15.9125 48.6415 15.8965C48.6415 15.8965 51.6503 19.1934 54.9793 22.7144C56.7718 20.5858 59.3485 17.689 62.3253 15.0803C67.8469 10.2309 71.4479 9.22265 73.4965 9.22265C81.2426 9.22265 87.5324 15.3684 87.5324 22.9385C87.5324 30.4606 81.2266 36.6063 73.4804 36.6543C73.1283 36.6543 72.6802 36.6063 72.1201 36.4943C74.3767 37.4706 76.8094 38.1748 79.114 38.1748C93.31 38.1748 96.0788 28.8922 96.2708 28.236C96.703 26.5075 96.911 24.731 96.911 22.9545C96.911 10.327 86.3961 0.100098 73.4965 0.100098Z" fill="url(#paint0_linear_1054_13244)"/>
<path d="M23.9146 45.7127C29.2921 45.7127 35.1817 42.9439 41.3915 37.5024C44.3363 34.9257 46.881 32.1569 48.7855 29.9323C48.7855 29.9323 48.7855 29.9323 48.7855 29.9163L48.7695 29.9323C48.7695 29.9323 45.7607 26.6353 42.4317 23.1144C40.6392 25.2429 38.0625 28.1398 35.0857 30.7485C29.5641 35.5978 25.9631 36.6221 23.9146 36.6221C16.1684 36.6221 9.87863 30.4604 9.87863 22.9063C9.87863 15.3842 16.1844 9.23847 23.9306 9.19046C24.2827 9.19046 24.7308 9.23847 25.2909 9.36651C23.0343 8.39023 20.6016 7.68604 18.297 7.68604C4.10101 7.68604 1.33223 16.9686 1.14018 17.6248C0.708058 19.3533 0.5 21.1298 0.5 22.9063C0.5 22.9063 0.5 22.9063 0.5 22.9223C0.5 35.4858 10.9989 45.7127 23.9146 45.7127Z" fill="url(#paint1_linear_1054_13244)"/>
<path d="M79.082 37.9027C71.8159 37.7266 64.2618 31.981 62.7254 30.5566C58.7403 26.8756 49.5537 16.8888 48.8335 16.1046C42.1116 8.55046 32.9891 0.100098 23.9145 0.100098H23.8985C12.8714 0.148111 3.60483 7.63821 1.14014 17.609C1.33219 16.9528 4.9492 7.49417 18.2809 7.83026C25.547 8.00631 33.1331 13.8319 34.6695 15.2563C38.6546 18.9374 47.8412 28.9242 48.5614 29.7084C55.2993 37.2625 64.4219 45.7129 73.4804 45.7129H73.4964C84.5235 45.6648 93.7741 38.1748 96.2388 28.204C96.0787 28.8601 92.4137 38.2388 79.082 37.9027Z" fill="#29ABE2"/>
<defs>
<linearGradient id="paint0_linear_1054_13244" x1="61.1158" y1="3.05325" x2="92.9376" y2="35.7132" gradientUnits="userSpaceOnUse">
<stop stop-color="#F15A24"/>
<stop offset="0.2118" stop-color="#F15A24"/>
<stop offset="0.6784" stop-color="#FBB03B"/>
<stop offset="1" stop-color="#FBB03B"/>
</linearGradient>
<linearGradient id="paint1_linear_1054_13244" x1="35.967" y1="42.4371" x2="4.14258" y2="9.77719" gradientUnits="userSpaceOnUse">
<stop stop-color="#ED1E79"/>
<stop offset="0.2118" stop-color="#ED1E79"/>
<stop offset="0.8902" stop-color="#522785"/>
<stop offset="1" stop-color="#522785"/>
</linearGradient>
</defs>
</svg>
