<svg width="42" height="42" viewBox="0 0 42 42" fill="none" xmlns="http://www.w3.org/2000/svg">
<path d="M37.8001 0.466675H4.20013C2.13827 0.466675 0.466797 2.13814 0.466797 4.20001V37.8C0.466797 39.8619 2.13827 41.5333 4.20013 41.5333H37.8001C39.862 41.5333 41.5335 39.8619 41.5335 37.8V4.20001C41.5335 2.13814 39.862 0.466675 37.8001 0.466675Z" fill="#4C8BF5"/>
<mask id="mask0_1054_13113" style="mask-type:alpha" maskUnits="userSpaceOnUse" x="0" y="0" width="42" height="42">
<path d="M37.8001 0.466675H4.20013C2.13827 0.466675 0.466797 2.13814 0.466797 4.20001V37.8C0.466797 39.8619 2.13827 41.5333 4.20013 41.5333H37.8001C39.862 41.5333 41.5335 39.8619 41.5335 37.8V4.20001C41.5335 2.13814 39.862 0.466675 37.8001 0.466675Z" fill="white"/>
</mask>
<g mask="url(#mask0_1054_13113)">
<path fill-rule="evenodd" clip-rule="evenodd" d="M9.78711 32.7996L20.4666 42.8608H42.2165L42.6 20.2L32.498 9.47913L31.9163 27.9071L18.9087 32.7996H9.78711Z" fill="url(#paint0_linear_1054_13113)"/>
<g filter="url(#filter0_ii_1054_13113)">
<path d="M37.8001 0.466675H4.20013C2.13827 0.466675 0.466797 2.13814 0.466797 4.20001V37.8C0.466797 39.8619 2.13827 41.5333 4.20013 41.5333H37.8001C39.862 41.5333 41.5335 39.8619 41.5335 37.8V4.20001C41.5335 2.13814 39.862 0.466675 37.8001 0.466675Z" fill="black" fill-opacity="0.01"/>
</g>
</g>
<mask id="mask1_1054_13113" style="mask-type:alpha" maskUnits="userSpaceOnUse" x="0" y="0" width="42" height="42">
<path d="M37.8001 0.466675H4.20013C2.13827 0.466675 0.466797 2.13814 0.466797 4.20001V37.8C0.466797 39.8619 2.13827 41.5333 4.20013 41.5333H37.8001C39.862 41.5333 41.5335 39.8619 41.5335 37.8V4.20001C41.5335 2.13814 39.862 0.466675 37.8001 0.466675Z" fill="white"/>
</mask>
<g mask="url(#mask1_1054_13113)">
<g filter="url(#filter1_d_1054_13113)">
<path fill-rule="evenodd" clip-rule="evenodd" d="M21.0001 37.2667C29.9839 37.2667 37.2667 29.9839 37.2667 21.0001C37.2667 12.0162 29.9839 4.7334 21.0001 4.7334C12.0162 4.7334 4.7334 12.0162 4.7334 21.0001C4.7334 29.9839 12.0162 37.2667 21.0001 37.2667Z" fill="#F5F5F5"/>
</g>
<path fill-rule="evenodd" clip-rule="evenodd" d="M18.2994 12.7988C16.1386 13.5216 14.2974 15.1026 13.2718 17.1033C12.914 17.7935 12.6565 18.5258 12.499 19.2859C12.1079 21.17 12.3798 23.18 13.267 24.8963C13.8442 26.0156 14.6742 27.0136 15.6759 27.7924C16.6251 28.5293 17.727 29.0796 18.9005 29.3828C20.3792 29.7698 21.9533 29.7605 23.4416 29.4294C24.7867 29.1262 26.0603 28.4966 27.0763 27.5826C28.1496 26.6172 28.9176 25.3487 29.323 23.9822C29.7666 22.4945 29.8239 20.9042 29.5472 19.3745H21.1996V22.7603H26.0365C25.8504 23.8423 25.1922 24.831 24.262 25.442C23.6753 25.829 23.0027 26.0762 22.3063 26.1975C21.6098 26.3141 20.8848 26.328 20.1883 26.1928C19.4776 26.0529 18.805 25.7637 18.2136 25.358C17.2691 24.7098 16.5488 23.763 16.1815 22.695C15.8047 21.6084 15.7999 20.4005 16.1815 19.3186C16.4486 18.5537 16.8875 17.8495 17.4694 17.2712C18.1849 16.553 19.1151 16.04 20.1216 15.8301C20.9802 15.6529 21.8865 15.6855 22.7261 15.9327C23.4415 16.1426 24.0998 16.5297 24.6389 17.0334C25.1826 16.5017 25.7264 15.97 26.2702 15.4384C26.5564 15.1539 26.8569 14.8788 27.1336 14.585C26.3083 13.8388 25.3353 13.2371 24.2763 12.8547C22.3683 12.1645 20.2217 12.1505 18.2994 12.7988Z" fill="#4C8BF5"/>
<path fill-rule="evenodd" clip-rule="evenodd" d="M37.2668 6.86664C38.445 6.86664 39.4001 5.9115 39.4001 4.73331C39.4001 3.55512 38.445 2.59998 37.2668 2.59998C36.0886 2.59998 35.1334 3.55512 35.1334 4.73331C35.1334 5.9115 36.0886 6.86664 37.2668 6.86664ZM4.73343 6.86664C5.91162 6.86664 6.86676 5.9115 6.86676 4.73331C6.86676 3.55512 5.91162 2.59998 4.73343 2.59998C3.55524 2.59998 2.6001 3.55512 2.6001 4.73331C2.6001 5.9115 3.55524 6.86664 4.73343 6.86664ZM37.2668 39.4C38.445 39.4 39.4001 38.4448 39.4001 37.2666C39.4001 36.0885 38.445 35.1333 37.2668 35.1333C36.0886 35.1333 35.1334 36.0885 35.1334 37.2666C35.1334 38.4448 36.0886 39.4 37.2668 39.4ZM4.73343 39.4C5.91162 39.4 6.86676 38.4448 6.86676 37.2666C6.86676 36.0885 5.91162 35.1333 4.73343 35.1333C3.55524 35.1333 2.6001 36.0885 2.6001 37.2666C2.6001 38.4448 3.55524 39.4 4.73343 39.4Z" fill="#A4C4FA"/>
</g>
<defs>
<filter id="filter0_ii_1054_13113" x="0.466797" y="-0.533325" width="41.0669" height="43.0667" filterUnits="userSpaceOnUse" color-interpolation-filters="sRGB">
<feFlood flood-opacity="0" result="BackgroundImageFix"/>
<feBlend mode="normal" in="SourceGraphic" in2="BackgroundImageFix" result="shape"/>
<feColorMatrix in="SourceAlpha" type="matrix" values="0 0 0 0 0 0 0 0 0 0 0 0 0 0 0 0 0 0 127 0" result="hardAlpha"/>
<feOffset dy="1"/>
<feGaussianBlur stdDeviation="2"/>
<feComposite in2="hardAlpha" operator="arithmetic" k2="-1" k3="1"/>
<feColorMatrix type="matrix" values="0 0 0 0 0.639216 0 0 0 0 0.768627 0 0 0 0 0.976471 0 0 0 0.5 0"/>
<feBlend mode="normal" in2="shape" result="effect1_innerShadow_1054_13113"/>
<feColorMatrix in="SourceAlpha" type="matrix" values="0 0 0 0 0 0 0 0 0 0 0 0 0 0 0 0 0 0 127 0" result="hardAlpha"/>
<feOffset dy="-1"/>
<feGaussianBlur stdDeviation="2"/>
<feComposite in2="hardAlpha" operator="arithmetic" k2="-1" k3="1"/>
<feColorMatrix type="matrix" values="0 0 0 0 0.639216 0 0 0 0 0.768627 0 0 0 0 0.976471 0 0 0 0.5 0"/>
<feBlend mode="normal" in2="effect1_innerShadow_1054_13113" result="effect2_innerShadow_1054_13113"/>
</filter>
<filter id="filter1_d_1054_13113" x="2.7334" y="2.7334" width="40.5332" height="40.5333" filterUnits="userSpaceOnUse" color-interpolation-filters="sRGB">
<feFlood flood-opacity="0" result="BackgroundImageFix"/>
<feColorMatrix in="SourceAlpha" type="matrix" values="0 0 0 0 0 0 0 0 0 0 0 0 0 0 0 0 0 0 127 0" result="hardAlpha"/>
<feOffset dx="2" dy="2"/>
<feGaussianBlur stdDeviation="2"/>
<feColorMatrix type="matrix" values="0 0 0 0 0 0 0 0 0 0 0 0 0 0 0 0 0 0 0.1 0"/>
<feBlend mode="normal" in2="BackgroundImageFix" result="effect1_dropShadow_1054_13113"/>
<feBlend mode="normal" in="SourceGraphic" in2="effect1_dropShadow_1054_13113" result="shape"/>
</filter>
<linearGradient id="paint0_linear_1054_13113" x1="11.4" y1="34.2641" x2="34.2299" y2="57.3914" gradientUnits="userSpaceOnUse">
<stop stop-color="#3C70C8"/>
<stop offset="1" stop-color="#4889F4" stop-opacity="0.01"/>
</linearGradient>
</defs>
</svg>
