<svg width="42" height="42" viewBox="0 0 42 42" fill="none" xmlns="http://www.w3.org/2000/svg">
<g filter="url(#filter0_i_1061_660)">
<path d="M36.4727 0.735718H5.53936C3.77204 0.735718 2.33936 2.16841 2.33936 3.93572V8.73572C2.33936 10.503 3.77204 11.9357 5.53936 11.9357H36.4727C38.24 11.9357 39.6727 10.503 39.6727 8.73572V3.93572C39.6727 2.16841 38.24 0.735718 36.4727 0.735718Z" fill="#C4C4C4"/>
</g>
<path fill-rule="evenodd" clip-rule="evenodd" d="M9.77295 5.09754L13.7752 9.27706H17.954L11.9938 2.78906L9.77295 5.09754Z" fill="url(#paint0_linear_1061_660)"/>
<g filter="url(#filter1_d_1061_660)">
<path fill-rule="evenodd" clip-rule="evenodd" d="M10.8725 5.53582C11.7561 5.53582 12.4725 4.8195 12.4725 3.93582C12.4725 3.05214 11.7561 2.33582 10.8725 2.33582C9.98878 2.33582 9.27246 3.05214 9.27246 3.93582C9.27246 4.8195 9.98878 5.53582 10.8725 5.53582Z" fill="#EFEFEF"/>
</g>
<path fill-rule="evenodd" clip-rule="evenodd" d="M30.0396 5.09754L34.0418 9.27706H38.2206L32.2603 2.78906L30.0396 5.09754Z" fill="url(#paint1_linear_1061_660)"/>
<g filter="url(#filter2_d_1061_660)">
<path fill-rule="evenodd" clip-rule="evenodd" d="M31.1391 5.53582C32.0227 5.53582 32.7391 4.8195 32.7391 3.93582C32.7391 3.05214 32.0227 2.33582 31.1391 2.33582C30.2554 2.33582 29.5391 3.05214 29.5391 3.93582C29.5391 4.8195 30.2554 5.53582 31.1391 5.53582Z" fill="#EFEFEF"/>
</g>
<g filter="url(#filter3_i_1061_660)">
<path fill-rule="evenodd" clip-rule="evenodd" d="M41.8706 10.3358C42.1405 8.56881 40.8907 7.13574 39.0786 7.13574H2.9215C1.11083 7.13574 -0.14069 8.56849 0.129443 10.3358L2.24875 24.2007L1.10112 38.0641C0.830991 39.8314 3.18742 41.2642 4.99808 41.2642H37.1893C39.0014 41.2642 40.8174 39.8311 40.5474 38.0641L39.7513 24.2011L41.8706 10.3358Z" fill="#4687F4"/>
</g>
<g filter="url(#filter4_i_1061_660)">
<path fill-rule="evenodd" clip-rule="evenodd" d="M2.9215 7.13574H39.0786C40.8907 7.13574 42.1405 8.56881 41.8706 10.3358L39.751 24.2024H2.24896L0.129443 10.3358C-0.14069 8.56849 1.11083 7.13574 2.9215 7.13574Z" fill="#3866D0"/>
</g>
<path fill-rule="evenodd" clip-rule="evenodd" d="M37.19 41.2642C39.0021 41.2642 40.8182 39.8311 40.5481 38.0641L39.7452 24.4645H2.23047L18.4301 41.2642H37.19Z" fill="url(#paint2_linear_1061_660)"/>
<path fill-rule="evenodd" clip-rule="evenodd" d="M23.597 17.5893L30.5559 14.9296V33.3287H28.4078V17.9028L23.597 19.6939V17.5893ZM13.1833 23.0169H15.2654C16.3226 23.0169 17.071 22.7488 17.5108 22.2127C17.9507 21.6765 18.1706 20.9296 18.1706 19.9719C18.1706 18.9488 17.9204 18.1712 17.42 17.6391C16.9197 17.1071 16.1813 16.841 15.2048 16.841C14.2768 16.841 13.5323 17.1173 12.9715 17.6698C12.4106 18.2223 12.1302 18.9569 12.1302 19.8737H9.84229L9.81807 19.8C9.77775 18.4495 10.2599 17.3015 11.2646 16.3561C12.2694 15.4107 13.5828 14.938 15.2048 14.938C16.835 14.938 18.1342 15.3779 19.1027 16.2578C20.0711 17.1378 20.5552 18.3922 20.5552 20.021C20.5552 20.7577 20.3354 21.4923 19.8955 22.2249C19.4557 22.9575 18.796 23.5162 17.9164 23.9009C18.9735 24.2529 19.722 24.8053 20.1619 25.5584C20.6016 26.3114 20.8216 27.1545 20.8216 28.0876C20.8216 29.7165 20.295 30.9975 19.2419 31.9307C18.1887 32.8638 16.843 33.3304 15.2048 33.3304C13.5989 33.3304 12.2694 32.8904 11.2162 32.0105C10.1631 31.1305 9.65669 29.9376 9.69706 28.4314L9.73338 28.3578H12.0091C12.0091 29.2991 12.2936 30.048 12.8625 30.6047C13.4315 31.1612 14.2122 31.4395 15.2048 31.4395C16.2136 31.4395 17.0045 31.1612 17.5774 30.6047C18.1504 30.048 18.4369 29.2254 18.4369 28.1368C18.4369 27.0318 18.1827 26.2173 17.6743 25.6935C17.1659 25.1696 16.3629 24.9076 15.2654 24.9076H13.1833V23.0169Z" fill="#EEEEEE"/>
<path fill-rule="evenodd" clip-rule="evenodd" d="M18.6538 24.2039H13.1829V23.0169H15.265C16.3222 23.0169 17.0707 22.7488 17.5105 22.2127C17.9503 21.6765 18.1702 20.9296 18.1702 19.9719C18.1702 18.9488 17.9201 18.1712 17.4197 17.6391C16.9194 17.1071 16.181 16.841 15.2045 16.841C14.2764 16.841 13.532 17.1173 12.9711 17.6698C12.4102 18.2223 12.1298 18.9569 12.1298 19.8737H9.84198L9.81777 19.8C9.7774 18.4495 10.2596 17.3015 11.2643 16.3561C12.269 15.4107 13.5824 14.938 15.2045 14.938C16.8346 14.938 18.1339 15.3779 19.1023 16.2578C20.0707 17.1378 20.5549 18.3922 20.5549 20.021C20.5549 20.7577 20.335 21.4923 19.8952 22.2249C19.4554 22.9575 18.7956 23.5162 17.916 23.9009C18.1814 23.9892 18.4274 24.0902 18.6538 24.2039ZM30.5556 24.1947V14.9296L23.5967 17.5893V19.6939L28.4075 17.9028V24.1947H30.5556Z" fill="#D4D4D4"/>
<g filter="url(#filter5_i_1061_660)">
<path fill-rule="evenodd" clip-rule="evenodd" d="M4.99882 41.2642H37.19C39.0022 41.2642 40.8182 39.8311 40.5481 38.0641L39.7518 24.1975H2.24975L1.10186 38.0641C0.831723 39.8315 3.18815 41.2642 4.99882 41.2642Z" fill="black" fill-opacity="0.01"/>
</g>
<defs>
<filter id="filter0_i_1061_660" x="2.33936" y="0.735718" width="37.3335" height="12.2" filterUnits="userSpaceOnUse" color-interpolation-filters="sRGB">
<feFlood flood-opacity="0" result="BackgroundImageFix"/>
<feBlend mode="normal" in="SourceGraphic" in2="BackgroundImageFix" result="shape"/>
<feColorMatrix in="SourceAlpha" type="matrix" values="0 0 0 0 0 0 0 0 0 0 0 0 0 0 0 0 0 0 127 0" result="hardAlpha"/>
<feOffset dy="1"/>
<feGaussianBlur stdDeviation="2"/>
<feComposite in2="hardAlpha" operator="arithmetic" k2="-1" k3="1"/>
<feColorMatrix type="matrix" values="0 0 0 0 0.792157 0 0 0 0 0.792157 0 0 0 0 0.792157 0 0 0 1 0"/>
<feBlend mode="normal" in2="shape" result="effect1_innerShadow_1061_660"/>
</filter>
<filter id="filter1_d_1061_660" x="8.77246" y="2.33582" width="5.2002" height="5.19995" filterUnits="userSpaceOnUse" color-interpolation-filters="sRGB">
<feFlood flood-opacity="0" result="BackgroundImageFix"/>
<feColorMatrix in="SourceAlpha" type="matrix" values="0 0 0 0 0 0 0 0 0 0 0 0 0 0 0 0 0 0 127 0" result="hardAlpha"/>
<feOffset dx="0.5" dy="1"/>
<feGaussianBlur stdDeviation="0.5"/>
<feColorMatrix type="matrix" values="0 0 0 0 0 0 0 0 0 0 0 0 0 0 0 0 0 0 0.1 0"/>
<feBlend mode="normal" in2="BackgroundImageFix" result="effect1_dropShadow_1061_660"/>
<feBlend mode="normal" in="SourceGraphic" in2="effect1_dropShadow_1061_660" result="shape"/>
</filter>
<filter id="filter2_d_1061_660" x="29.0391" y="2.33582" width="5.2002" height="5.19995" filterUnits="userSpaceOnUse" color-interpolation-filters="sRGB">
<feFlood flood-opacity="0" result="BackgroundImageFix"/>
<feColorMatrix in="SourceAlpha" type="matrix" values="0 0 0 0 0 0 0 0 0 0 0 0 0 0 0 0 0 0 127 0" result="hardAlpha"/>
<feOffset dx="0.5" dy="1"/>
<feGaussianBlur stdDeviation="0.5"/>
<feColorMatrix type="matrix" values="0 0 0 0 0 0 0 0 0 0 0 0 0 0 0 0 0 0 0.1 0"/>
<feBlend mode="normal" in2="BackgroundImageFix" result="effect1_dropShadow_1061_660"/>
<feBlend mode="normal" in="SourceGraphic" in2="effect1_dropShadow_1061_660" result="shape"/>
</filter>
<filter id="filter3_i_1061_660" x="0.0927734" y="6.13574" width="41.8145" height="35.1284" filterUnits="userSpaceOnUse" color-interpolation-filters="sRGB">
<feFlood flood-opacity="0" result="BackgroundImageFix"/>
<feBlend mode="normal" in="SourceGraphic" in2="BackgroundImageFix" result="shape"/>
<feColorMatrix in="SourceAlpha" type="matrix" values="0 0 0 0 0 0 0 0 0 0 0 0 0 0 0 0 0 0 127 0" result="hardAlpha"/>
<feOffset dy="-1"/>
<feGaussianBlur stdDeviation="2"/>
<feComposite in2="hardAlpha" operator="arithmetic" k2="-1" k3="1"/>
<feColorMatrix type="matrix" values="0 0 0 0 0.258824 0 0 0 0 0.494118 0 0 0 0 0.913725 0 0 0 1 0"/>
<feBlend mode="normal" in2="shape" result="effect1_innerShadow_1061_660"/>
</filter>
<filter id="filter4_i_1061_660" x="0.0927734" y="7.13574" width="41.8145" height="18.0667" filterUnits="userSpaceOnUse" color-interpolation-filters="sRGB">
<feFlood flood-opacity="0" result="BackgroundImageFix"/>
<feBlend mode="normal" in="SourceGraphic" in2="BackgroundImageFix" result="shape"/>
<feColorMatrix in="SourceAlpha" type="matrix" values="0 0 0 0 0 0 0 0 0 0 0 0 0 0 0 0 0 0 127 0" result="hardAlpha"/>
<feOffset dy="1"/>
<feGaussianBlur stdDeviation="2"/>
<feComposite in2="hardAlpha" operator="arithmetic" k2="-1" k3="1"/>
<feColorMatrix type="matrix" values="0 0 0 0 0.282353 0 0 0 0 0.45098 0 0 0 0 0.831373 0 0 0 1 0"/>
<feBlend mode="normal" in2="shape" result="effect1_innerShadow_1061_660"/>
</filter>
<filter id="filter5_i_1061_660" x="1.08057" y="24.1975" width="39.4941" height="17.5667" filterUnits="userSpaceOnUse" color-interpolation-filters="sRGB">
<feFlood flood-opacity="0" result="BackgroundImageFix"/>
<feBlend mode="normal" in="SourceGraphic" in2="BackgroundImageFix" result="shape"/>
<feColorMatrix in="SourceAlpha" type="matrix" values="0 0 0 0 0 0 0 0 0 0 0 0 0 0 0 0 0 0 127 0" result="hardAlpha"/>
<feOffset dy="0.5"/>
<feGaussianBlur stdDeviation="2"/>
<feComposite in2="hardAlpha" operator="arithmetic" k2="-1" k3="1"/>
<feColorMatrix type="matrix" values="0 0 0 0 0.588542 0 0 0 0 0.588542 0 0 0 0 0.588542 0 0 0 0.2 0"/>
<feBlend mode="normal" in2="shape" result="effect1_innerShadow_1061_660"/>
</filter>
<linearGradient id="paint0_linear_1061_660" x1="7.89322" y1="5.8464" x2="11.0545" y2="11.7243" gradientUnits="userSpaceOnUse">
<stop stop-color="#B0B0B0"/>
<stop offset="1" stop-color="#D8D8D8" stop-opacity="0.01"/>
</linearGradient>
<linearGradient id="paint1_linear_1061_660" x1="28.1598" y1="5.8464" x2="31.3212" y2="11.7243" gradientUnits="userSpaceOnUse">
<stop stop-color="#B0B0B0"/>
<stop offset="1" stop-color="#D8D8D8" stop-opacity="0.01"/>
</linearGradient>
<linearGradient id="paint2_linear_1061_660" x1="7.64844" y1="26.4064" x2="9.43954" y2="42.3337" gradientUnits="userSpaceOnUse">
<stop stop-color="#3C78DD"/>
<stop offset="1" stop-color="#4688F4" stop-opacity="0.01"/>
</linearGradient>
</defs>
</svg>
