<svg width="24" height="25" viewBox="0 0 24 25" fill="none" xmlns="http://www.w3.org/2000/svg">
<path d="M12.0098 2.90625C6.48977 2.90625 2.00977 7.38625 2.00977 12.9062C2.00977 18.4262 6.48977 22.9062 12.0098 22.9062C17.5198 22.9062 22.0098 18.4262 22.0098 12.9062C22.0098 7.38625 17.5198 2.90625 12.0098 2.90625ZM18.6148 7.51625C19.8455 9.01556 20.5265 10.8906 20.5448 12.8302C20.2638 12.7762 17.4438 12.2012 14.6018 12.5592C14.5368 12.4182 14.4818 12.2663 14.4178 12.1143C14.2408 11.6973 14.0527 11.2852 13.8538 10.8783C16.9988 9.59825 18.4308 7.75425 18.6148 7.51625V7.51625ZM12.0098 4.38125C14.1798 4.38125 16.1638 5.19425 17.6718 6.52925C17.5198 6.74525 16.2288 8.47025 13.1918 9.60925C11.7928 7.03925 10.2418 4.93425 10.0028 4.60925C10.6606 4.45546 11.3342 4.37894 12.0098 4.38125V4.38125ZM8.37677 5.18425C9.5212 6.77057 10.5784 8.418 11.5438 10.1192C7.55177 11.1812 4.02677 11.1593 3.64777 11.1593C3.92259 9.86638 4.49237 8.65447 5.31267 7.61804C6.13296 6.58162 7.18159 5.7487 8.37677 5.18425V5.18425ZM3.46277 12.9163V12.6562C3.83277 12.6662 7.97477 12.7212 12.2378 11.4412C12.4878 11.9182 12.7148 12.4062 12.9318 12.8942C12.8228 12.9272 12.7038 12.9593 12.5958 12.9923C8.19177 14.4123 5.84877 18.2953 5.65377 18.6213C4.2436 17.0557 3.4634 15.0233 3.46377 12.9163H3.46277ZM12.0098 21.4533C10.1112 21.4565 8.26643 20.8227 6.77077 19.6532C6.92277 19.3382 8.65877 15.9972 13.4738 14.3162C13.4958 14.3062 13.5068 14.3062 13.5278 14.2942C14.3401 16.3896 14.9505 18.5578 15.3508 20.7693C14.2956 21.2233 13.1585 21.4561 12.0098 21.4533V21.4533ZM16.7708 19.9883C16.6848 19.4683 16.2288 16.9733 15.1118 13.9043C17.7908 13.4813 20.1338 14.1752 20.4258 14.2732C20.2434 15.4263 19.8246 16.5293 19.1956 17.5128C18.5666 18.4962 17.741 19.3391 16.7708 19.9883V19.9883Z" fill="#475569"/>
</svg>
