<svg width="24" height="25" viewBox="0 0 24 25" fill="none" xmlns="http://www.w3.org/2000/svg">
<path d="M4.252 10.9062C4.08416 11.5597 3.99949 12.2316 4 12.9062C4 13.5962 4.088 14.2663 4.252 14.9062H7.1C6.96518 13.5763 6.96518 12.2362 7.1 10.9062H4.252ZM5.07 8.90625H7.416C7.682 7.68925 8.066 6.59925 8.537 5.69225C7.08518 6.39167 5.87722 7.51148 5.07 8.90625V8.90625ZM19.748 10.9062H16.9C17.0348 12.2362 17.0348 13.5763 16.9 14.9062H19.748C20.0847 13.5942 20.0847 12.2183 19.748 10.9062ZM18.93 8.90625C18.1228 7.51148 16.9148 6.39167 15.463 5.69225C15.935 6.59925 16.318 7.68925 16.584 8.90625H18.93ZM9.112 10.9062C9.03708 11.5703 8.99968 12.238 9 12.9062C9 13.5913 9.038 14.2613 9.112 14.9062H14.888C15.0386 13.5772 15.0386 12.2353 14.888 10.9062H9.112ZM9.47 8.90625H14.53C14.348 8.15455 14.0855 7.42466 13.747 6.72925C13.119 5.47425 12.447 4.90625 12 4.90625C11.552 4.90625 10.881 5.47425 10.253 6.72925C9.938 7.36125 9.673 8.09625 9.47 8.90625ZM5.07 16.9062C5.87722 18.301 7.08518 19.4208 8.537 20.1203C8.065 19.2133 7.682 18.1233 7.416 16.9062H5.07V16.9062ZM18.93 16.9062H16.584C16.318 18.1233 15.934 19.2133 15.463 20.1203C16.9148 19.4208 18.1228 18.301 18.93 16.9062ZM9.47 16.9062C9.673 17.7163 9.938 18.4513 10.253 19.0833C10.881 20.3383 11.553 20.9062 12 20.9062C12.448 20.9062 13.119 20.3383 13.747 19.0833C14.062 18.4513 14.327 17.7163 14.53 16.9062H9.47V16.9062ZM12 22.9062C6.477 22.9062 2 18.4292 2 12.9062C2 7.38325 6.477 2.90625 12 2.90625C17.523 2.90625 22 7.38325 22 12.9062C22 18.4292 17.523 22.9062 12 22.9062Z" fill="#475569"/>
</svg>
