<svg width="24" height="25" viewBox="0 0 24 25" fill="none" xmlns="http://www.w3.org/2000/svg">
<path d="M14.7378 8.37806L5.69976 17.4161L5.10876 19.4321L7.08376 18.8611L16.1518 9.79306L14.7378 8.37806ZM16.2798 6.83606L17.6938 8.25006L19.0118 6.93206C19.1055 6.8383 19.1582 6.71114 19.1582 6.57856C19.1582 6.44598 19.1055 6.31882 19.0118 6.22506L18.3038 5.51806C18.21 5.42432 18.0828 5.37167 17.9503 5.37167C17.8177 5.37167 17.6905 5.42432 17.5968 5.51806L16.2808 6.83606H16.2798ZM19.7188 4.10406L20.4258 4.81106C20.8944 5.27988 21.1577 5.91565 21.1577 6.57856C21.1577 7.24147 20.8944 7.87724 20.4258 8.34606L8.13376 20.6391L3.91376 21.8591C3.74175 21.9087 3.55958 21.9112 3.38626 21.8663C3.21295 21.8215 3.05485 21.731 2.92847 21.6042C2.80209 21.4774 2.71206 21.319 2.66779 21.1455C2.62351 20.9721 2.62661 20.7899 2.67676 20.6181L3.92476 16.3631L16.1848 4.10306C16.6536 3.63438 17.2894 3.37109 17.9523 3.37109C18.6152 3.37109 19.2509 3.63438 19.7198 4.10306L19.7188 4.10406Z" fill="#475569"/>
</svg>
