<svg width="64" height="65" viewBox="0 0 64 65" fill="none" xmlns="http://www.w3.org/2000/svg">
<path d="M48 59.0726H16C11.5817 59.0726 8 55.491 8 51.0726V45.7393C8 41.3209 11.5817 37.7393 16 37.7393H48C52.4184 37.7393 56 41.3209 56 45.7393V51.0726C56 55.491 52.4184 59.0726 48 59.0726Z" stroke="#7E22CE" stroke-width="1.5"/>
<path d="M8 21.7393V16.4059C8 10.5149 12.7756 5.73926 18.6667 5.73926H45.3333C51.2243 5.73926 56 10.5149 56 16.4059V21.7393" stroke="#7E22CE" stroke-width="1.5" stroke-linecap="round" stroke-linejoin="round"/>
<path d="M32 16.406L40 24.406M32 37.7393V16.406V37.7393ZM32 16.406L24 24.406L32 16.406Z" stroke="#7E22CE" stroke-width="1.5" stroke-linecap="round" stroke-linejoin="round"/>
</svg>
