<svg width="24" height="25" viewBox="0 0 24 25" fill="none" xmlns="http://www.w3.org/2000/svg">
<g clip-path="url(#clip0_1054_13301)">
<path d="M13.5375 12.9063C13.5375 16.6338 10.5075 19.6563 6.768 19.6563C5.8804 19.6574 5.00125 19.4838 4.18076 19.1452C3.36026 18.8066 2.61449 18.3098 1.98603 17.683C1.35756 17.0562 0.858704 16.3117 0.517941 15.4921C0.177178 14.6725 0.00118111 13.7939 0 12.9063C0 9.17726 3.03 6.15626 6.768 6.15626C7.65573 6.15488 8.53504 6.32839 9.3557 6.66688C10.1764 7.00537 10.9223 7.50221 11.5509 8.12903C12.1796 8.75584 12.6786 9.50035 13.0194 10.32C13.3603 11.1397 13.5363 12.0185 13.5375 12.9063ZM20.9625 12.9063C20.9625 16.4163 19.4475 19.2603 17.5785 19.2603C15.7095 19.2603 14.1945 16.4148 14.1945 12.9063C14.1945 9.39626 15.7095 6.55226 17.5785 6.55226C19.4475 6.55226 20.9625 9.39776 20.9625 12.9063ZM24 12.9063C24 16.0503 23.4675 18.5988 22.809 18.5988C22.152 18.5988 21.6195 16.0488 21.6195 12.9063C21.6195 9.76226 22.152 7.21376 22.8105 7.21376C23.4675 7.21376 24 9.76226 24 12.9063Z" fill="#475569"/>
</g>
<defs>
<clipPath id="clip0_1054_13301">
<rect width="24" height="24" fill="white" transform="translate(0 0.90625)"/>
</clipPath>
</defs>
</svg>
