<svg width="16" height="17" viewBox="0 0 16 17" fill="none" xmlns="http://www.w3.org/2000/svg">
<path d="M7.99992 13.7393C9.41441 13.7393 10.771 13.1774 11.7712 12.1772C12.7713 11.177 13.3333 9.82041 13.3333 8.40592C13.3333 6.99144 12.7713 5.63488 11.7712 4.63469C10.771 3.63449 9.41441 3.07259 7.99992 3.07259C6.58543 3.07259 5.22888 3.63449 4.22868 4.63469C3.22849 5.63488 2.66659 6.99144 2.66659 8.40592C2.66659 9.82041 3.22849 11.177 4.22868 12.1772C5.22888 13.1774 6.58543 13.7393 7.99992 13.7393V13.7393ZM7.99992 15.0726C4.31792 15.0726 1.33325 12.0879 1.33325 8.40592C1.33325 4.72392 4.31792 1.73926 7.99992 1.73926C11.6819 1.73926 14.6666 4.72392 14.6666 8.40592C14.6666 12.0879 11.6819 15.0726 7.99992 15.0726Z" fill="#C084FC"/>
</svg>
