<svg width="24" height="25" viewBox="0 0 24 25" fill="none" xmlns="http://www.w3.org/2000/svg">
<path d="M15.586 10.9221L11.636 6.97206C11.4538 6.78345 11.353 6.53085 11.3553 6.26865C11.3576 6.00646 11.4628 5.75565 11.6482 5.57024C11.8336 5.38483 12.0844 5.27966 12.3466 5.27738C12.6088 5.2751 12.8614 5.3759 13.05 5.55806L18.707 11.2151C18.8002 11.3077 18.8741 11.4179 18.9246 11.5392C18.9751 11.6605 19.001 11.7906 19.001 11.9221C19.001 12.0535 18.9751 12.1836 18.9246 12.3049C18.8741 12.4262 18.8002 12.5364 18.707 12.6291L13.05 18.2861C12.9578 18.3816 12.8474 18.4577 12.7254 18.5102C12.6034 18.5626 12.4722 18.5902 12.3394 18.5913C12.2066 18.5925 12.0749 18.5672 11.952 18.5169C11.8291 18.4666 11.7175 18.3923 11.6236 18.2985C11.5297 18.2046 11.4555 18.0929 11.4052 17.97C11.3549 17.8471 11.3296 17.7154 11.3307 17.5827C11.3319 17.4499 11.3595 17.3187 11.4119 17.1967C11.4643 17.0746 11.5405 16.9643 11.636 16.8721L15.586 12.9221H6C5.73478 12.9221 5.48043 12.8167 5.29289 12.6292C5.10536 12.4416 5 12.1873 5 11.9221C5 11.6568 5.10536 11.4025 5.29289 11.2149C5.48043 11.0274 5.73478 10.9221 6 10.9221H15.586V10.9221Z" fill="white"/>
</svg>
