<svg width="24" height="25" viewBox="0 0 24 25" fill="none" xmlns="http://www.w3.org/2000/svg">
<g clip-path="url(#clip0_1054_13305)">
<path d="M13.5 0.90625H16.47C16.686 1.97875 17.28 3.33175 18.3225 4.67425C19.3425 5.98975 20.6955 6.90625 22.5 6.90625V9.90625C19.8705 9.90625 17.895 8.68525 16.5 7.16275V17.4062C16.5 18.8896 16.0601 20.3397 15.236 21.573C14.4119 22.8064 13.2406 23.7677 11.8701 24.3353C10.4997 24.903 8.99168 25.0515 7.53683 24.7621C6.08197 24.4728 4.7456 23.7584 3.6967 22.7096C2.64781 21.6607 1.9335 20.3243 1.64411 18.8694C1.35472 17.4146 1.50325 15.9066 2.07091 14.5361C2.63856 13.1657 3.59986 11.9943 4.83323 11.1702C6.0666 10.3461 7.51664 9.90625 9 9.90625V12.9062C8.10999 12.9062 7.23996 13.1702 6.49994 13.6646C5.75992 14.1591 5.18314 14.8619 4.84255 15.6842C4.50195 16.5064 4.41284 17.4112 4.58647 18.2842C4.7601 19.1571 5.18869 19.9589 5.81802 20.5882C6.44736 21.2176 7.24918 21.6462 8.1221 21.8198C8.99501 21.9934 9.89981 21.9043 10.7221 21.5637C11.5443 21.2231 12.2472 20.6463 12.7416 19.9063C13.2361 19.1663 13.5 18.2963 13.5 17.4062V0.90625Z" fill="#475569"/>
</g>
<defs>
<clipPath id="clip0_1054_13305">
<rect width="24" height="24" fill="white" transform="translate(0 0.90625)"/>
</clipPath>
</defs>
</svg>
