<svg width="24" height="25" viewBox="0 0 24 25" fill="none" xmlns="http://www.w3.org/2000/svg">
<path d="M12 2.40625C6.20156 2.40625 1.5 7.22969 1.5 13.1734C1.5 17.9312 4.50937 21.9625 8.68125 23.3875C8.73977 23.4002 8.79949 23.4065 8.85938 23.4062C9.24844 23.4062 9.39844 23.1203 9.39844 22.8719C9.39844 22.6141 9.38906 21.9391 9.38437 21.0391C9.03705 21.1205 8.68173 21.1629 8.325 21.1656C6.30469 21.1656 5.84531 19.5953 5.84531 19.5953C5.36719 18.3531 4.67813 18.0203 4.67813 18.0203C3.76406 17.3781 4.67344 17.3594 4.74375 17.3594H4.74844C5.80313 17.4531 6.35625 18.475 6.35625 18.475C6.88125 19.3937 7.58437 19.6516 8.2125 19.6516C8.62783 19.6433 9.03673 19.5474 9.4125 19.3703C9.50625 18.6766 9.77812 18.2031 10.0781 17.9312C7.74844 17.6594 5.29688 16.7359 5.29688 12.6109C5.29688 11.4344 5.70469 10.4734 6.375 9.72344C6.26719 9.45156 5.90625 8.35469 6.47812 6.87344C6.55483 6.85508 6.63368 6.8472 6.7125 6.85C7.09219 6.85 7.95 6.99531 9.36563 7.97969C11.0857 7.49843 12.9049 7.49843 14.625 7.97969C16.0406 6.99531 16.8984 6.85 17.2781 6.85C17.3569 6.8472 17.4358 6.85508 17.5125 6.87344C18.0844 8.35469 17.7234 9.45156 17.6156 9.72344C18.2859 10.4781 18.6937 11.4391 18.6937 12.6109C18.6937 16.7453 16.2375 17.6547 13.8984 17.9219C14.2734 18.2547 14.6109 18.9109 14.6109 19.9141C14.6109 21.3531 14.5969 22.5156 14.5969 22.8672C14.5969 23.1203 14.7422 23.4062 15.1312 23.4062C15.1942 23.4065 15.2571 23.4002 15.3187 23.3875C19.4953 21.9625 22.5 17.9266 22.5 13.1734C22.5 7.22969 17.7984 2.40625 12 2.40625Z" fill="#475569"/>
</svg>
