<svg width="24" height="25" viewBox="0 0 24 25" fill="none" xmlns="http://www.w3.org/2000/svg">
<path d="M12.0098 2.90625C17.5328 2.90625 22.0098 7.38325 22.0098 12.9062C22.0098 18.4292 17.5328 22.9062 12.0098 22.9062C6.48677 22.9062 2.00977 18.4292 2.00977 12.9062C2.00977 7.38325 6.48677 2.90625 12.0098 2.90625ZM16.4518 8.90625C16.0708 8.91325 15.4858 9.11325 12.6728 10.2682C10.6983 11.0926 8.72921 11.9299 6.76577 12.7802C6.28577 12.9692 6.03577 13.1532 6.01277 13.3333C5.96877 13.6792 6.47277 13.7862 7.10677 13.9902C7.62377 14.1562 8.31977 14.3502 8.68177 14.3582C9.00977 14.3652 9.37577 14.2312 9.77977 13.9583C12.5398 12.1182 13.9628 11.1892 14.0528 11.1692C14.1158 11.1552 14.2028 11.1372 14.2628 11.1892C14.3218 11.2413 14.3158 11.3392 14.3088 11.3663C14.2588 11.5773 11.6678 13.9043 11.5188 14.0573L11.4468 14.1292C10.8968 14.6722 10.3418 15.0273 11.2998 15.6503C12.1658 16.2133 12.6698 16.5723 13.5598 17.1503C14.1298 17.5183 14.5768 17.9553 15.1648 17.9023C15.4358 17.8773 15.7148 17.6263 15.8578 16.8763C16.1928 15.1063 16.8528 11.2683 17.0048 9.68625C17.014 9.55503 17.0083 9.42319 16.9878 9.29325C16.9754 9.18834 16.924 9.09194 16.8438 9.02325C16.7228 8.92525 16.5348 8.90525 16.4518 8.90625Z" fill="#475569"/>
</svg>
