<svg width="25" height="25" viewBox="0 0 25 25" fill="none" xmlns="http://www.w3.org/2000/svg">
<path d="M16.517 2.90625H8.447C6.87015 2.9081 5.35844 3.53539 4.24353 4.65049C3.12862 5.76558 2.50159 7.2774 2.5 8.85425L2.5 16.9242C2.50185 18.5011 3.12914 20.0128 4.24424 21.1277C5.35933 22.2426 6.87115 22.8697 8.448 22.8713H16.518C18.0948 22.8694 19.6066 22.2421 20.7215 21.127C21.8364 20.0119 22.4634 18.5001 22.465 16.9233V8.85325C22.4631 7.2764 21.8359 5.76469 20.7208 4.64978C19.6057 3.53487 18.0938 2.90784 16.517 2.90625V2.90625ZM20.457 16.9233C20.457 17.4407 20.3551 17.953 20.1571 18.431C19.9591 18.909 19.6689 19.3434 19.303 19.7093C18.9371 20.0751 18.5028 20.3653 18.0248 20.5633C17.5467 20.7613 17.0344 20.8633 16.517 20.8633H8.447C7.40222 20.863 6.40032 20.4478 5.66165 19.7089C4.92297 18.97 4.508 17.968 4.508 16.9233V8.85325C4.50827 7.80847 4.92349 6.80657 5.66235 6.0679C6.40122 5.32922 7.40322 4.91425 8.448 4.91425H16.518C17.5628 4.91452 18.5647 5.32974 19.3034 6.0686C20.042 6.80747 20.457 7.80947 20.457 8.85425V16.9242V16.9233Z" fill="#475569"/>
<path d="M12.4821 7.7251C11.1135 7.72721 9.8016 8.27188 8.83397 9.2397C7.86633 10.2075 7.32192 11.5195 7.32007 12.8881C7.32166 14.257 7.86609 15.5694 8.83397 16.5375C9.80185 17.5056 11.1142 18.0502 12.4831 18.0521C13.8522 18.0505 15.1647 17.5059 16.1328 16.5378C17.1009 15.5697 17.6455 14.2572 17.6471 12.8881C17.645 11.5192 17.1 10.207 16.1318 9.23929C15.1635 8.2716 13.851 7.72742 12.4821 7.7261V7.7251ZM12.4821 16.0441C11.6453 16.0441 10.8428 15.7117 10.2511 15.12C9.65947 14.5283 9.32707 13.7259 9.32707 12.8891C9.32707 12.0523 9.65947 11.2499 10.2511 10.6582C10.8428 10.0665 11.6453 9.7341 12.4821 9.7341C13.3188 9.7341 14.1213 10.0665 14.713 10.6582C15.3047 11.2499 15.6371 12.0523 15.6371 12.8891C15.6371 13.7259 15.3047 14.5283 14.713 15.12C14.1213 15.7117 13.3188 16.0441 12.4821 16.0441V16.0441Z" fill="#475569"/>
<path d="M17.6559 9.00134C18.3391 9.00134 18.8929 8.44752 18.8929 7.76434C18.8929 7.08117 18.3391 6.52734 17.6559 6.52734C16.9728 6.52734 16.4189 7.08117 16.4189 7.76434C16.4189 8.44752 16.9728 9.00134 17.6559 9.00134Z" fill="#475569"/>
</svg>
