<svg width="24" height="25" viewBox="0 0 24 25" fill="none" xmlns="http://www.w3.org/2000/svg">
<path d="M13.3142 12.571L8.36421 7.62098C8.18205 7.43238 8.08126 7.17978 8.08353 6.91758C8.08581 6.65538 8.19098 6.40457 8.37639 6.21916C8.5618 6.03375 8.81261 5.92859 9.07481 5.92631C9.337 5.92403 9.58961 6.02482 9.77821 6.20698L15.4352 11.864C15.6227 12.0515 15.728 12.3058 15.728 12.571C15.728 12.8361 15.6227 13.0905 15.4352 13.278L9.77821 18.935C9.58961 19.1171 9.337 19.2179 9.07481 19.2157C8.81261 19.2134 8.5618 19.1082 8.37639 18.9228C8.19098 18.7374 8.08581 18.4866 8.08353 18.2244C8.08126 17.9622 8.18205 17.7096 8.36421 17.521L13.3142 12.571Z" fill="#475569"/>
</svg>
