<svg width="24" height="25" viewBox="0 0 24 25" fill="none" xmlns="http://www.w3.org/2000/svg">
<path d="M20.025 8.17548H15.024V6.93348H20.025V8.17548V8.17548ZM11.695 13.2695C12.017 13.7695 12.178 14.3765 12.178 15.0885C12.178 15.8255 11.996 16.4865 11.627 17.0705C11.3994 17.449 11.1009 17.78 10.748 18.0455C10.3344 18.3578 9.85483 18.5712 9.346 18.6695C8.76885 18.7845 8.18149 18.8405 7.593 18.8365H2V6.41748H7.998C9.509 6.44248 10.58 6.88048 11.214 7.74048C11.594 8.26848 11.782 8.90048 11.782 9.63748C11.782 10.3965 11.592 11.0035 11.208 11.4655C10.995 11.7245 10.68 11.9595 10.263 12.1725C10.894 12.4035 11.373 12.7675 11.694 13.2695H11.695ZM4.865 11.3145H7.492C8.032 11.3145 8.469 11.2115 8.805 11.0065C9.141 10.8015 9.309 10.4365 9.309 9.91448C9.309 9.33648 9.087 8.95348 8.642 8.76848C8.259 8.64048 7.77 8.57448 7.176 8.57448H4.864V11.3145H4.865ZM9.562 14.9115C9.562 14.2665 9.298 13.8205 8.772 13.5815C8.477 13.4445 8.062 13.3755 7.53 13.3705H4.864V16.6805H7.49C8.029 16.6805 8.446 16.6095 8.747 16.4625C9.29 16.1915 9.563 15.6765 9.563 14.9115H9.562ZM21.88 12.8915C21.94 13.2975 21.968 13.8865 21.957 14.6575H15.48C15.516 15.5515 15.824 16.1765 16.41 16.5345C16.763 16.7585 17.19 16.8685 17.692 16.8685C18.22 16.8685 18.651 16.7345 18.982 16.4595C19.163 16.3145 19.322 16.1095 19.46 15.8495H21.834C21.772 16.3775 21.486 16.9135 20.973 17.4575C20.177 18.3225 19.061 18.7565 17.627 18.7565C16.443 18.7565 15.399 18.3905 14.493 17.6615C13.59 16.9295 13.137 15.7435 13.137 14.0975C13.137 12.5545 13.544 11.3735 14.361 10.5515C15.181 9.72748 16.239 9.31748 17.543 9.31748C18.317 9.31748 19.013 9.45548 19.635 9.73348C20.255 10.0115 20.767 10.4495 21.171 11.0505C21.536 11.5805 21.771 12.1925 21.881 12.8905L21.88 12.8915ZM19.543 13.1225C19.5 12.5045 19.293 12.0365 18.922 11.7165C18.553 11.3965 18.092 11.2355 17.543 11.2355C16.945 11.2355 16.483 11.4075 16.156 11.7455C15.826 12.0825 15.62 12.5415 15.536 13.1225H19.543Z" fill="#475569"/>
</svg>
