<svg width="24" height="25" viewBox="0 0 24 25" fill="none" xmlns="http://www.w3.org/2000/svg">
<path d="M10.67 16.0034C10.164 18.7294 9.54802 21.3434 7.72002 22.7084C7.15702 18.5884 8.54902 15.4934 9.19502 12.2084C8.09302 10.2984 9.32802 6.45344 11.652 7.40044C14.512 8.56644 9.17503 14.5024 12.758 15.2444C16.499 16.0184 18.027 8.56144 15.707 6.13544C12.355 2.63444 5.95002 6.05644 6.73802 11.0694C6.93002 12.2954 8.15902 12.6674 7.22902 14.3594C5.08402 13.8684 4.44402 12.1264 4.52702 9.80344C4.65902 6.00344 7.84402 3.34144 11.038 2.97344C15.078 2.50744 18.869 4.50044 19.392 8.41344C19.982 12.8294 17.569 17.6134 13.25 17.2684C12.079 17.1754 11.587 16.5784 10.67 16.0034V16.0034Z" fill="#475569"/>
</svg>
