<svg width="16" height="17" viewBox="0 0 16 17" fill="none" xmlns="http://www.w3.org/2000/svg">
<path d="M8.00016 13.7393C9.41465 13.7393 10.7712 13.1774 11.7714 12.1772C12.7716 11.177 13.3335 9.82041 13.3335 8.40592C13.3335 6.99144 12.7716 5.63488 11.7714 4.63469C10.7712 3.63449 9.41465 3.07259 8.00016 3.07259C6.58567 3.07259 5.22912 3.63449 4.22893 4.63469C3.22873 5.63488 2.66683 6.99144 2.66683 8.40592C2.66683 9.82041 3.22873 11.177 4.22893 12.1772C5.22912 13.1774 6.58567 13.7393 8.00016 13.7393V13.7393ZM8.00016 15.0726C4.31816 15.0726 1.3335 12.0879 1.3335 8.40592C1.3335 4.72392 4.31816 1.73926 8.00016 1.73926C11.6822 1.73926 14.6668 4.72392 14.6668 8.40592C14.6668 12.0879 11.6822 15.0726 8.00016 15.0726Z" fill="#22C55E"/>
</svg>
