<svg width="24" height="25" viewBox="0 0 24 25" fill="none" xmlns="http://www.w3.org/2000/svg">
<path d="M17.812 5.92336H6.145C3.855 5.92336 2 7.75836 2 10.0224V15.7904C2 18.0544 3.856 19.8904 6.145 19.8904H17.812C20.102 19.8904 21.957 18.0544 21.957 15.7904V10.0224C21.957 7.75836 20.101 5.92236 17.812 5.92236V5.92336ZM15.009 13.1864L9.552 15.7614C9.51872 15.7774 9.48192 15.7847 9.44503 15.7827C9.40815 15.7807 9.37237 15.7694 9.34103 15.7498C9.3097 15.7303 9.28382 15.7031 9.2658 15.6708C9.24779 15.6386 9.23822 15.6023 9.238 15.5654V10.2564C9.23867 10.2192 9.24872 10.1829 9.26722 10.1507C9.28573 10.1185 9.31208 10.0915 9.34382 10.0722C9.37556 10.053 9.41167 10.0421 9.44877 10.0405C9.48587 10.039 9.52276 10.0468 9.556 10.0634L15.014 12.7984C15.0504 12.8165 15.0809 12.8445 15.102 12.8792C15.1232 12.9139 15.1341 12.9538 15.1336 12.9944C15.1331 13.0351 15.1211 13.0747 15.0991 13.1088C15.077 13.143 15.0458 13.1702 15.009 13.1874V13.1864Z" fill="#475569"/>
</svg>
