<svg width="25" height="25" viewBox="0 0 25 25" fill="none" xmlns="http://www.w3.org/2000/svg">
<path d="M22.459 14.6251V22.0041H18.181V15.1191C18.181 13.3891 17.562 12.2091 16.014 12.2091C14.832 12.2091 14.128 13.0051 13.819 13.7741C13.706 14.0491 13.677 14.4321 13.677 14.8171V22.0041H9.397C9.397 22.0041 9.455 10.3441 9.397 9.13513H13.677V10.9591L13.649 11.0011H13.677V10.9591C14.245 10.0841 15.26 8.83313 17.533 8.83313C20.348 8.83313 22.459 10.6731 22.459 14.6251V14.6251ZM4.921 2.93213C3.458 2.93213 2.5 3.89213 2.5 5.15513C2.5 6.39013 3.43 7.37913 4.865 7.37913H4.893C6.386 7.37913 7.313 6.39013 7.313 5.15513C7.287 3.89213 6.387 2.93213 4.922 2.93213H4.921ZM2.754 22.0041H7.032V9.13513H2.754V22.0041Z" fill="#475569"/>
</svg>
