<svg width="24" height="25" viewBox="0 0 24 25" fill="none" xmlns="http://www.w3.org/2000/svg">
<path d="M15.586 11.5632L11.636 7.61317C11.4538 7.42457 11.353 7.17196 11.3553 6.90977C11.3576 6.64757 11.4628 6.39676 11.6482 6.21135C11.8336 6.02594 12.0844 5.92077 12.3466 5.91849C12.6088 5.91622 12.8614 6.01701 13.05 6.19917L18.707 11.8562C18.8002 11.9488 18.8741 12.059 18.9246 12.1803C18.9751 12.3016 19.001 12.4318 19.001 12.5632C19.001 12.6946 18.9751 12.8247 18.9246 12.946C18.8741 13.0674 18.8002 13.1775 18.707 13.2702L13.05 18.9272C12.9578 19.0227 12.8474 19.0989 12.7254 19.1513C12.6034 19.2037 12.4722 19.2313 12.3394 19.2324C12.2066 19.2336 12.0749 19.2083 11.952 19.158C11.8291 19.1077 11.7175 19.0335 11.6236 18.9396C11.5297 18.8457 11.4555 18.734 11.4052 18.6111C11.3549 18.4882 11.3296 18.3565 11.3307 18.2238C11.3319 18.091 11.3595 17.9598 11.4119 17.8378C11.4643 17.7158 11.5405 17.6054 11.636 17.5132L15.586 13.5632H6C5.73478 13.5632 5.48043 13.4578 5.29289 13.2703C5.10536 13.0827 5 12.8284 5 12.5632C5 12.298 5.10536 12.0436 5.29289 11.8561C5.48043 11.6685 5.73478 11.5632 6 11.5632H15.586V11.5632Z" fill="#475569"/>
</svg>
