<svg width="25" height="25" viewBox="0 0 25 25" fill="none" xmlns="http://www.w3.org/2000/svg">
<path d="M22.5 6.81341C21.7504 7.14079 20.9565 7.35545 20.144 7.45041C20.9968 6.94965 21.638 6.15552 21.948 5.21641C21.14 5.68674 20.2587 6.01802 19.341 6.19641C18.9545 5.79162 18.4897 5.4698 17.9748 5.25059C17.4598 5.03138 16.9056 4.91938 16.346 4.92141C14.08 4.92141 12.243 6.73141 12.243 8.96141C12.243 9.27741 12.279 9.58641 12.349 9.88141C10.7236 9.80411 9.13212 9.38882 7.67617 8.66205C6.22022 7.93528 4.93176 6.91299 3.893 5.66041C3.52883 6.27482 3.33742 6.97619 3.339 7.69041C3.3397 8.35838 3.50683 9.01564 3.82529 9.60281C4.14375 10.19 4.6035 10.6885 5.163 11.0534C4.51248 11.0324 3.87602 10.8587 3.305 10.5464V10.5964C3.305 12.5544 4.72 14.1874 6.595 14.5594C6.24261 14.6529 5.87958 14.7003 5.515 14.7004C5.25 14.7004 4.993 14.6754 4.742 14.6254C5.01008 15.4333 5.52311 16.1377 6.20982 16.6408C6.89653 17.1438 7.72284 17.4205 8.574 17.4324C7.11407 18.557 5.32182 19.1645 3.479 19.1594C3.147 19.1594 2.821 19.1394 2.5 19.1034C4.38125 20.2941 6.56259 20.9247 8.789 20.9214C16.336 20.9214 20.462 14.7644 20.462 9.42541L20.448 8.90241C21.2529 8.33608 21.9481 7.62826 22.5 6.81341V6.81341Z" fill="#475569"/>
</svg>
