<svg width="64" height="65" viewBox="0 0 64 65" fill="none" xmlns="http://www.w3.org/2000/svg">
<path d="M43.9266 53.7392H10.9335C10.0498 53.7392 9.3335 53.023 9.3335 52.1392V26.0059C9.3335 25.1222 10.0498 24.4059 10.9335 24.4059H18.3138C20.1872 24.4059 21.9233 23.423 22.8871 21.8165L30.1148 9.77019C31.6746 7.17091 35.3479 6.92382 37.2415 9.29086C38.134 10.4066 38.4218 11.8895 38.0111 13.2581L35.2847 22.3461C34.9767 23.3727 35.7455 24.4059 36.8172 24.4059H49.0175C52.534 24.4059 55.0882 27.7499 54.1628 31.1424L49.0719 49.8091C48.4391 52.1296 46.3316 53.7392 43.9266 53.7392Z" stroke="#7E22CE" stroke-width="1.5" stroke-linecap="round"/>
<path d="M18.6665 53.7393V24.406" stroke="#7E22CE" stroke-width="1.5" stroke-linecap="round" stroke-linejoin="round"/>
</svg>
