<svg width="201" height="44" viewBox="0 0 201 44" fill="none" xmlns="http://www.w3.org/2000/svg">
<path d="M62.6217 6.90479C60.2882 6.90479 58.0213 7.20481 57.0879 7.43816C55.7545 7.80486 55.4211 8.4049 55.1545 9.605L49.8874 34.1069C49.7874 34.6069 49.7207 35.0403 49.7207 35.4403C49.7207 36.6404 50.5208 37.4405 51.8209 37.4405C53.2543 37.4405 53.821 36.5071 54.121 35.107L55.6212 28.1398C56.6546 28.2731 58.0547 28.4065 60.0215 28.4065C68.6888 28.4065 74.0559 23.7394 74.0559 16.6722C74.0226 10.4384 69.7223 6.90479 62.6217 6.90479ZM59.7881 24.3728C58.4547 24.3728 57.388 24.3395 56.4546 24.2061L59.2548 11.2051C60.1215 11.0718 61.4216 10.9051 62.755 10.9051C67.3554 10.9051 69.6889 13.0719 69.6889 16.6722C69.6889 21.2726 66.3553 24.3728 59.7881 24.3728ZM198.799 29.3732C198.099 29.3732 197.632 29.8066 196.765 30.74C195.232 32.3401 194.265 33.2068 193.032 33.2068C191.932 33.2068 191.365 32.3401 191.365 30.9066C191.365 30.1066 191.532 29.1398 191.732 28.1064L193.265 20.8392H197.899C199.366 20.8392 200.232 20.0058 200.232 18.5057C200.232 17.6723 199.699 17.0389 198.432 17.0389H194.065L194.832 13.6386C194.932 13.1386 194.999 12.6719 194.999 12.2719C194.999 11.1051 194.199 10.2717 192.898 10.2717C191.532 10.2717 190.898 11.2051 190.598 12.6052L189.632 17.0389H187.665C186.165 17.0389 185.298 17.8723 185.298 19.3724C185.298 20.2058 185.898 20.8392 187.131 20.8392H188.831L187.298 28.0398C187.131 28.8398 186.931 30.1399 186.931 31.4734C186.931 34.8736 188.698 37.3405 192.465 37.3405C194.632 37.3405 196.565 36.2404 198.032 34.9403C199.466 33.6735 200.499 32.1401 200.499 31.14C200.532 30.1733 199.766 29.3732 198.799 29.3732ZM102.658 9.37164C102.658 8.17155 101.825 7.37149 100.525 7.37149C99.1579 7.37149 98.5245 8.30489 98.2245 9.705L92.9907 33.9735C92.8574 34.4736 92.7907 34.9069 92.7907 35.307C92.7907 36.5071 93.6241 37.3071 94.8909 37.3071C96.3243 37.3071 96.9244 36.3737 97.2244 34.9736L102.458 10.7051C102.525 10.205 102.658 9.77167 102.658 9.37164ZM177.264 16.6389C170.563 16.6389 166.03 23.2727 166.03 29.6065C166.03 29.7399 166.03 29.8399 166.03 29.9732C164.996 31.5734 163.63 33.2068 162.729 33.2068C162.063 33.2068 161.796 32.5734 161.796 31.6067C161.796 30.4399 162.129 28.4731 162.496 26.773L165.963 10.7051C166.063 10.205 166.13 9.77167 166.13 9.37164C166.13 8.17155 165.33 7.37149 164.03 7.37149C162.596 7.37149 162.029 8.30489 161.729 9.705L159.863 18.4057C158.863 17.3723 157.396 16.6389 155.196 16.6389C150.762 16.6389 146.295 20.0725 144.561 25.3062C142.628 30.2733 140.928 33.2068 139.561 33.2068C139.061 33.2068 138.761 32.7735 138.761 32.0734C138.761 29.9732 139.928 24.8728 140.428 22.406C140.594 21.4726 140.694 21.1059 140.694 20.5725C140.694 18.739 137.628 16.5722 133.661 16.5722C129.06 16.5722 124.893 19.4724 122.826 23.8061C119.726 29.2732 116.893 33.2068 115.492 33.2068C114.859 33.2068 114.659 32.4068 114.492 31.6734L113.459 25.9063L119.859 20.6725C120.46 20.1725 121.193 19.4724 121.193 18.539C121.193 17.4056 120.426 16.6722 119.326 16.6722C118.493 16.6722 117.793 17.1722 117.059 17.7723L107.459 25.7062L110.692 10.7384C110.792 10.2384 110.892 9.80501 110.892 9.40498C110.892 8.20489 110.059 7.40482 108.759 7.40482C107.392 7.40482 106.758 8.33823 106.458 9.73834L101.225 34.0069C101.091 34.5069 101.025 34.9403 101.025 35.3403C101.025 36.5404 101.858 37.3405 103.125 37.3405C104.558 37.3405 105.158 36.4071 105.458 35.007L106.125 31.8734L110.059 28.7065L111.025 33.5402C111.392 35.4737 112.392 37.3405 114.992 37.3405C117.559 37.3405 119.593 34.9736 121.626 31.8067C122.226 35.1403 124.627 37.3405 127.893 37.3405C131.194 37.3405 133.461 35.3737 134.927 32.7401V32.8401C134.927 35.5737 136.294 37.3405 138.728 37.3405C140.928 37.3405 142.728 36.007 144.361 33.2068C145.295 35.6403 147.362 37.3405 150.228 37.3405C153.629 37.3405 156.029 35.307 157.596 32.4401V32.7068C157.596 35.707 159.096 37.3405 161.563 37.3405C163.73 37.3405 165.596 36.0737 167.163 34.0069C168.363 36.0737 170.53 37.3405 173.43 37.3405C180.131 37.3405 184.664 30.7066 184.664 24.3395C184.631 19.8391 181.931 16.6389 177.264 16.6389ZM135.594 25.1395C134.394 30.3733 131.794 33.3402 128.86 33.3402C126.893 33.3402 125.793 31.8401 125.793 29.5732C125.793 25.1395 129.027 20.3725 133.327 20.3725C134.627 20.3725 135.627 20.7392 136.494 21.3059L135.594 25.1395ZM158.896 22.906C157.562 29.0398 154.495 33.3068 151.162 33.3068C149.328 33.3068 148.228 31.8734 148.228 29.5399C148.228 25.0729 151.329 20.4392 155.462 20.4392C157.062 20.4392 158.262 20.9725 159.129 21.7059L158.896 22.906ZM173.897 33.3068C171.463 33.3068 170.463 31.54 170.463 29.3399C170.463 25.2729 173.264 20.6392 176.764 20.6392C179.197 20.6392 180.197 22.406 180.197 24.6062C180.197 28.7065 177.397 33.3068 173.897 33.3068ZM84.4567 16.6389C77.7562 16.6389 73.2225 23.2727 73.2225 29.6065C73.2225 34.1069 75.9561 37.3405 80.5898 37.3405C87.2903 37.3405 91.824 30.7066 91.824 24.3395C91.7906 19.8391 89.0904 16.6389 84.4567 16.6389ZM81.0565 33.3068C78.6229 33.3068 77.6229 31.54 77.6229 29.3399C77.6229 25.2729 80.4231 20.6392 83.9234 20.6392C86.3569 20.6392 87.357 22.406 87.357 24.6062C87.357 28.7065 84.5567 33.3068 81.0565 33.3068Z" fill="black"/>
<path d="M20.6183 0.504395C24.8853 0.504395 28.3189 2.50455 28.3189 5.00474C28.3189 7.4716 24.852 9.50509 20.6183 9.50509C16.3847 9.50509 12.9177 7.50494 12.9177 5.00474C12.9177 2.53789 16.3513 0.504395 20.6183 0.504395ZM20.6183 34.307C24.8853 34.307 28.3189 36.3072 28.3189 38.8074C28.3189 41.3076 24.852 43.3077 20.6183 43.3077C16.3847 43.3077 12.9177 41.3076 12.9177 38.8074C12.9177 36.3072 16.3513 34.307 20.6183 34.307ZM2.08355 11.2052C4.21705 7.50494 7.68399 5.53812 9.81749 6.77155C11.951 8.00498 11.9843 12.0053 9.85082 15.7056C7.71732 19.4059 4.25039 21.3727 2.11689 20.1392C-0.0166087 18.9058 -0.0499454 14.9055 2.08355 11.2052ZM31.3525 28.1065C33.486 24.4063 36.9529 22.4394 39.0864 23.6729C41.2199 24.9063 41.2533 28.9066 39.1198 32.6069C36.9863 36.3072 33.5193 38.274 31.3858 37.0406C29.2523 35.8071 29.2523 31.8068 31.3525 28.1065ZM2.11689 23.6729C4.25039 22.4394 7.71732 24.4063 9.85082 28.1065C11.9843 31.8068 11.951 35.8071 9.81749 37.0406C7.68399 38.274 4.21705 36.3072 2.08355 32.6069C-0.0499454 28.9066 -0.0166087 24.9063 2.11689 23.6729ZM31.3858 6.77155C33.5193 5.53812 36.9863 7.50494 39.1198 11.2052C41.2533 14.9055 41.2533 18.9058 39.0864 20.1392C36.9529 21.3727 33.486 19.4059 31.3525 15.7056C29.2523 12.0053 29.2523 8.00498 31.3858 6.77155Z" fill="#E6007A"/>
</svg>
