<svg width="1084" height="634" viewBox="0 0 1084 634" fill="none" xmlns="http://www.w3.org/2000/svg" xmlns:xlink="http://www.w3.org/1999/xlink">
<g clip-path="url(#clip0_813_47993)" filter="url(#filter0_dd_813_47993)">
<path d="M136 43.4063C136 27.9423 148.536 15.4062 164 15.4062H924C939.464 15.4062 952 27.9423 952 43.4063V551.406C952 553.615 950.209 555.406 948 555.406H140C137.791 555.406 136 553.615 136 551.406V43.4063Z" fill="#0F172A"/>
<path d="M141 42.4062C141 30.256 150.85 20.4062 163 20.4062H925C937.15 20.4062 947 30.256 947 42.4062V547.406H141V42.4062Z" fill="black"/>
<rect x="155" y="41.4058" width="777" height="506" fill="url(#pattern0)"/>
<path d="M38 554.406C38 553.302 38.8954 552.406 40 552.406H1044C1045.1 552.406 1046 553.302 1046 554.406V558.406H38V554.406Z" fill="#94A3B8"/>
<path d="M38 558.406H1046L1025.65 562.511C999.613 567.762 973.123 570.406 946.566 570.406H135.909C106.724 570.406 77.6267 567.212 49.1367 560.881L38 558.406Z" fill="#475569"/>
</g>
<defs>
<filter id="filter0_dd_813_47993" x="0" y="0.40625" width="1084" height="633" filterUnits="userSpaceOnUse" color-interpolation-filters="sRGB">
<feFlood flood-opacity="0" result="BackgroundImageFix"/>
<feColorMatrix in="SourceAlpha" type="matrix" values="0 0 0 0 0 0 0 0 0 0 0 0 0 0 0 0 0 0 127 0" result="hardAlpha"/>
<feOffset/>
<feGaussianBlur stdDeviation="7.5"/>
<feComposite in2="hardAlpha" operator="out"/>
<feColorMatrix type="matrix" values="0 0 0 0 0 0 0 0 0 0 0 0 0 0 0 0 0 0 0.07 0"/>
<feBlend mode="normal" in2="BackgroundImageFix" result="effect1_dropShadow_813_47993"/>
<feColorMatrix in="SourceAlpha" type="matrix" values="0 0 0 0 0 0 0 0 0 0 0 0 0 0 0 0 0 0 127 0" result="hardAlpha"/>
<feMorphology radius="12" operator="erode" in="SourceAlpha" result="effect2_dropShadow_813_47993"/>
<feOffset dy="25"/>
<feGaussianBlur stdDeviation="25"/>
<feColorMatrix type="matrix" values="0 0 0 0 0 0 0 0 0 0 0 0 0 0 0 0 0 0 0.25 0"/>
<feBlend mode="normal" in2="effect1_dropShadow_813_47993" result="effect2_dropShadow_813_47993"/>
<feBlend mode="normal" in="SourceGraphic" in2="effect2_dropShadow_813_47993" result="shape"/>
</filter>
<pattern id="pattern0" patternContentUnits="objectBoundingBox" width="1" height="1">
<use xlink:href="#image0_813_47993" transform="matrix(0.00130245 0 0 0.002 -0.0209781 0)"/>
</pattern>
<clipPath id="clip0_813_47993">
<rect width="1008" height="555" fill="white" transform="translate(38 15.4062)"/>
</clipPath>

</defs>
</svg>
