<svg width="136" height="41" viewBox="0 0 136 41" fill="none" xmlns="http://www.w3.org/2000/svg">
<path d="M130.164 1.70625C131.278 1.70625 132.346 2.14875 133.134 2.9364C133.922 3.72405 134.364 4.79234 134.364 5.90625V35.9062C134.364 37.0202 133.922 38.0884 133.134 38.8761C132.346 39.6637 131.278 40.1063 130.164 40.1063H5.16406C4.05015 40.1063 2.98187 39.6637 2.19421 38.8761C1.40656 38.0884 0.964063 37.0202 0.964063 35.9062V5.90625C0.964063 4.79234 1.40656 3.72405 2.19421 2.9364C2.98187 2.14875 4.05015 1.70625 5.16406 1.70625H130.164ZM130.164 0.90625H5.16406C3.83798 0.90625 2.56621 1.43303 1.62853 2.37072C0.690847 3.3084 0.164063 4.58017 0.164062 5.90625V35.9062C0.164063 37.2323 0.690847 38.5041 1.62853 39.4418C2.56621 40.3795 3.83798 40.9062 5.16406 40.9062H130.164C131.49 40.9062 132.762 40.3795 133.7 39.4418C134.637 38.5041 135.164 37.2323 135.164 35.9062V5.90625C135.164 4.58017 134.637 3.3084 133.7 2.37072C132.762 1.43303 131.49 0.90625 130.164 0.90625Z" fill="#A6A6A6"/>
</svg>
