<svg width="85" height="18" viewBox="0 0 85 18" fill="none" xmlns="http://www.w3.org/2000/svg">
<path d="M27.3042 5.65617C26.4616 5.65815 25.6386 5.90993 24.9391 6.37967C24.2397 6.84941 23.6952 7.51601 23.3746 8.29518C23.054 9.07434 22.9717 9.93108 23.138 10.7571C23.3043 11.583 23.7118 12.3411 24.309 12.9355C24.9061 13.5299 25.6662 13.9338 26.4929 14.0962C27.3196 14.2587 28.176 14.1723 28.9536 13.8481C29.7313 13.5238 30.3953 12.9762 30.8618 12.2746C31.3282 11.5729 31.5761 10.7487 31.5742 9.90617C31.5823 9.34411 31.4773 8.78615 31.2653 8.26552C31.0534 7.74488 30.7388 7.27223 30.3404 6.87568C29.942 6.47913 29.4679 6.16681 28.9463 5.9573C28.4246 5.74779 27.8662 5.64538 27.3042 5.65617ZM27.3042 12.4862C26.7877 12.5223 26.2724 12.4022 25.8251 12.1416C25.3779 11.8809 25.0193 11.4917 24.7962 11.0246C24.573 10.5575 24.4956 10.0341 24.5738 9.52232C24.6521 9.01059 24.8825 8.53425 25.2351 8.15521C25.5877 7.77617 26.0462 7.51197 26.5509 7.39695C27.0557 7.28193 27.5833 7.32141 28.0653 7.51026C28.5474 7.69911 28.9614 8.02859 29.2537 8.45588C29.5459 8.88317 29.7029 9.38849 29.7042 9.90617C29.7203 10.2342 29.6705 10.5621 29.5579 10.8706C29.4452 11.1791 29.272 11.4619 29.0483 11.7023C28.8246 11.9428 28.5551 12.136 28.2555 12.2707C27.956 12.4053 27.6325 12.4786 27.3042 12.4862ZM17.9842 5.65617C17.1416 5.65815 16.3186 5.90993 15.6191 6.37967C14.9197 6.84941 14.3752 7.51601 14.0546 8.29518C13.734 9.07434 13.6517 9.93108 13.818 10.7571C13.9843 11.583 14.3918 12.3411 14.989 12.9355C15.5861 13.5299 16.3462 13.9338 17.1729 14.0962C17.9996 14.2587 18.856 14.1723 19.6336 13.8481C20.4113 13.5238 21.0753 12.9762 21.5418 12.2746C22.0082 11.5729 22.2561 10.7487 22.2542 9.90617C22.2623 9.34411 22.1573 8.78615 21.9453 8.26552C21.7334 7.74488 21.4188 7.27223 21.0204 6.87568C20.622 6.47913 20.1479 6.16681 19.6263 5.9573C19.1046 5.74779 18.5462 5.64538 17.9842 5.65617ZM17.9842 12.4862C17.4677 12.5223 16.9524 12.4022 16.5051 12.1416C16.0579 11.8809 15.6993 11.4917 15.4762 11.0246C15.253 10.5575 15.1756 10.0341 15.2538 9.52232C15.3321 9.01059 15.5625 8.53425 15.9151 8.15521C16.2677 7.77617 16.7262 7.51197 17.2309 7.39695C17.7357 7.28193 18.2633 7.32141 18.7453 7.51026C19.2274 7.69911 19.6414 8.02859 19.9337 8.45588C20.2259 8.88317 20.3829 9.38849 20.3842 9.90617C20.4003 10.2342 20.3505 10.5621 20.2379 10.8706C20.1252 11.1791 19.952 11.4619 19.7283 11.7023C19.5046 11.9428 19.2351 12.136 18.9355 12.2707C18.636 12.4053 18.3125 12.4786 17.9842 12.4862ZM6.90416 6.96617V8.76617H11.2242C11.1564 9.61398 10.804 10.414 10.2242 11.0362C9.79082 11.4777 9.26961 11.8233 8.69427 12.0507C8.11893 12.2781 7.50226 12.3821 6.88416 12.3562C5.61112 12.3562 4.39022 11.8505 3.49005 10.9503C2.58987 10.0501 2.08416 8.82921 2.08416 7.55617C2.08416 6.28314 2.58987 5.06224 3.49005 4.16206C4.39022 3.26189 5.61112 2.75617 6.88416 2.75617C8.10461 2.73802 9.28306 3.2015 10.1642 4.04617L11.4342 2.77617C10.8381 2.18668 10.1305 1.72206 9.35262 1.40955C8.57476 1.09703 7.74235 0.942893 6.90416 0.956172C6.01516 0.921574 5.12832 1.0668 4.29678 1.38314C3.46525 1.69949 2.70613 2.18044 2.06492 2.79718C1.42371 3.41393 0.913597 4.15376 0.565155 4.97237C0.216714 5.79097 0.0371094 6.67149 0.0371094 7.56117C0.0371094 8.45085 0.216714 9.33137 0.565155 10.15C0.913597 10.9686 1.42371 11.7084 2.06492 12.3252C2.70613 12.9419 3.46525 13.4229 4.29678 13.7392C5.12832 14.0555 6.01516 14.2008 6.90416 14.1662C7.75958 14.2003 8.61255 14.0532 9.40707 13.7343C10.2016 13.4155 10.9197 12.9322 11.5142 12.3162C12.5643 11.1626 13.1238 9.64536 13.0742 8.08617C13.0777 7.7109 13.0476 7.33606 12.9842 6.96617H6.90416ZM52.2142 8.36617C51.9534 7.59891 51.4657 6.92896 50.8157 6.44502C50.1657 5.96109 49.384 5.68599 48.5742 5.65617C48.0272 5.6551 47.4857 5.76624 46.9834 5.98271C46.481 6.19918 46.0284 6.51638 45.6535 6.91471C45.2786 7.31303 44.9894 7.78402 44.8038 8.29856C44.6181 8.81309 44.54 9.36024 44.5742 9.90617C44.5656 10.819 44.8526 11.7101 45.3923 12.4464C45.932 13.1827 46.6953 13.7247 47.5684 13.9913C48.4415 14.258 49.3774 14.235 50.2364 13.9259C51.0953 13.6167 51.8312 13.038 52.3342 12.2762L50.8842 11.2762C50.668 11.6365 50.3614 11.934 49.9948 12.1392C49.6282 12.3444 49.2143 12.4503 48.7942 12.4462C48.3607 12.4641 47.932 12.3504 47.5644 12.1202C47.1967 11.89 46.9073 11.5539 46.7342 11.1562L52.4242 8.80617L52.2142 8.36617ZM46.4142 9.78617C46.3939 9.47555 46.4358 9.16401 46.5374 8.86979C46.6391 8.57557 46.7984 8.30458 47.0061 8.0727C47.2137 7.84081 47.4656 7.6527 47.7469 7.51936C48.0281 7.38602 48.3332 7.31014 48.6442 7.29617C48.9664 7.2765 49.2872 7.35236 49.5665 7.51424C49.8458 7.67612 50.0711 7.91681 50.2142 8.20617L46.4142 9.78617ZM41.7942 13.9062H43.6642V1.40617H41.7942V13.9062ZM38.7342 6.60617H38.6642C38.3848 6.28803 38.04 6.03398 37.6534 5.86139C37.2668 5.6888 36.8475 5.60174 36.4242 5.60617C35.3313 5.65917 34.3008 6.13059 33.5461 6.92276C32.7915 7.71492 32.3705 8.76707 32.3705 9.86117C32.3705 10.9553 32.7915 12.0074 33.5461 12.7996C34.3008 13.5918 35.3313 14.0632 36.4242 14.1162C36.8481 14.1247 37.2687 14.0395 37.656 13.8666C38.0432 13.6937 38.3874 13.4375 38.6642 13.1162H38.7342V13.7262C38.7342 15.3562 37.8642 16.2262 36.4642 16.2262C35.9965 16.2159 35.5424 16.0669 35.1596 15.798C34.7768 15.5292 34.4825 15.1526 34.3142 14.7162L32.6942 15.3862C32.9937 16.1384 33.5144 16.7821 34.1876 17.232C34.8607 17.682 35.6546 17.917 36.4642 17.9062C38.6542 17.9062 40.4642 16.6162 40.4642 13.4762V5.90617H38.7342V6.60617ZM36.5842 12.4862C35.929 12.4453 35.314 12.1563 34.8645 11.6778C34.4149 11.1994 34.1647 10.5676 34.1647 9.91117C34.1647 9.25471 34.4149 8.62293 34.8645 8.14451C35.314 7.66609 35.929 7.37702 36.5842 7.33617C36.9044 7.34999 37.2186 7.42809 37.508 7.56581C37.7975 7.70353 38.0562 7.89807 38.269 8.13785C38.4817 8.37762 38.644 8.65774 38.7462 8.96153C38.8485 9.26532 38.8886 9.58657 38.8642 9.90617C38.8914 10.2269 38.8534 10.5498 38.7523 10.8553C38.6513 11.1609 38.4893 11.4428 38.2761 11.684C38.063 11.9251 37.8032 12.1206 37.5124 12.2585C37.2215 12.3963 36.9058 12.4738 36.5842 12.4862ZM60.9742 1.40617H56.4942V13.9062H58.3642V9.16617H60.9742C61.5071 9.20446 62.0422 9.13254 62.5462 8.9549C63.0501 8.77726 63.512 8.4977 63.9032 8.13367C64.2943 7.76963 64.6062 7.32892 64.8195 6.83901C65.0328 6.3491 65.1429 5.8205 65.1429 5.28617C65.1429 4.75184 65.0328 4.22325 64.8195 3.73334C64.6062 3.24343 64.2943 2.80272 63.9032 2.43868C63.512 2.07464 63.0501 1.79509 62.5462 1.61745C62.0422 1.4398 61.5071 1.36788 60.9742 1.40617ZM60.9742 7.40617H58.3642V3.14617H61.0142C61.2952 3.14617 61.5735 3.20152 61.8331 3.30907C62.0927 3.41661 62.3286 3.57425 62.5274 3.77296C62.7261 3.97168 62.8837 4.20759 62.9913 4.46723C63.0988 4.72687 63.1542 5.00514 63.1542 5.28617C63.1542 5.5672 63.0988 5.84548 62.9913 6.10512C62.8837 6.36475 62.7261 6.60066 62.5274 6.79938C62.3286 6.9981 62.0927 7.15573 61.8331 7.26327C61.5735 7.37082 61.2952 7.42617 61.0142 7.42617L60.9742 7.40617ZM72.5142 5.61617C71.8332 5.57418 71.1548 5.73272 70.563 6.07219C69.9711 6.41165 69.4918 6.91715 69.1842 7.52617L70.8342 8.21617C71.0009 7.91558 71.2511 7.66968 71.5545 7.5082C71.858 7.34672 72.2017 7.27655 72.5442 7.30617C72.7815 7.27845 73.0221 7.29827 73.2517 7.3645C73.4814 7.43072 73.6955 7.54201 73.8817 7.69188C74.0679 7.84175 74.2223 8.0272 74.3361 8.2374C74.4498 8.4476 74.5205 8.67834 74.5442 8.91617V9.03617C73.9428 8.72009 73.2735 8.55534 72.5942 8.55617C70.8142 8.55617 68.9942 9.55617 68.9942 11.3762C69.0118 11.763 69.1069 12.1424 69.274 12.4917C69.4411 12.8411 69.6767 13.1533 69.9668 13.4098C70.2569 13.6663 70.5956 13.8619 70.9627 13.985C71.3299 14.108 71.7181 14.1561 72.1042 14.1262C72.5734 14.1521 73.0411 14.0528 73.4594 13.8384C73.8776 13.6241 74.2313 13.3023 74.4842 12.9062H74.5442V13.9062H76.3442V9.09617C76.3442 6.90617 74.6842 5.63617 72.5542 5.63617L72.5142 5.61617ZM72.2842 12.4662C71.6742 12.4662 70.8242 12.1562 70.8242 11.4062C70.8242 10.4062 71.8842 10.0662 72.8242 10.0662C73.4182 10.0515 74.0053 10.1966 74.5242 10.4862C74.4614 11.0292 74.2039 11.5311 73.7994 11.8989C73.3948 12.2666 72.8707 12.4753 72.3242 12.4862L72.2842 12.4662ZM82.9042 5.90617L80.7642 11.3262H80.7042L78.4842 5.90617H76.4842L79.8142 13.4862L77.9142 17.6962H79.8642L84.9842 5.90617H82.9042ZM66.1042 13.9062H67.9642V1.40617H66.1042V13.9062Z" fill="white"/>
</svg>
