<svg width="143" height="16" viewBox="0 0 143 16" fill="none" xmlns="http://www.w3.org/2000/svg">
<path d="M7.5022 15.5167C11.1192 15.5167 13.1678 13.3561 13.936 11.3235C14.0801 10.9394 13.84 10.5393 13.4559 10.4273L12.2715 10.0752C11.8714 9.94715 11.4393 10.1872 11.2633 10.5713C10.7031 11.7076 9.53477 12.7959 7.5022 12.7959C5.19755 12.7959 3.05296 11.1155 3.05296 8.05862C3.05296 4.7937 5.3256 3.25727 7.4702 3.25727C9.50277 3.25727 10.6231 4.26556 11.1512 5.40188C11.3433 5.80199 11.7754 6.05806 12.1915 5.91402L13.3759 5.52991C13.76 5.41788 13.984 5.01777 13.84 4.63366C13.0718 2.53707 11.0552 0.552518 7.4542 0.552518C3.59712 0.552518 0.140137 3.46533 0.140137 8.05862C0.140137 12.6199 3.48507 15.5167 7.5022 15.5167ZM21.6822 8.0106C21.6822 4.76169 23.9548 3.22527 26.1634 3.22527C28.388 3.22527 30.6607 4.76169 30.6607 8.0106C30.6607 11.2595 28.388 12.7959 26.1634 12.7959C23.9548 12.7959 21.6822 11.2595 21.6822 8.0106ZM18.7854 8.02661C18.7854 12.6519 22.2743 15.5007 26.1634 15.5007C30.0685 15.5007 33.5575 12.6359 33.5575 8.02661C33.5575 3.38531 30.0685 0.520508 26.1634 0.520508C22.2743 0.536512 18.7854 3.40131 18.7854 8.02661ZM56.0438 15.2126C56.4599 15.2126 56.796 14.8765 56.796 14.4604V1.86488C56.796 1.30473 56.3479 0.856602 55.7877 0.856602H53.6751C53.259 0.856602 52.8909 1.11267 52.7469 1.48078L48.7778 11.2275L44.7286 1.48078C44.5686 1.09667 44.2005 0.856602 43.8004 0.856602H41.7998C41.2397 0.856602 40.7915 1.30473 40.7915 1.86488V14.4604C40.7915 14.8765 41.1276 15.2126 41.5437 15.2126H42.6961C43.1122 15.2126 43.5123 15.0526 43.5123 14.6365L43.4643 5.22583L47.4014 14.7485C47.5134 15.0366 47.8015 15.2126 48.1056 15.2126H49.4179C49.722 15.2126 50.0101 15.0206 50.1221 14.7485L54.0592 5.1458V14.4604C54.0592 14.8765 54.3953 15.2126 54.8114 15.2126H56.0438ZM66.9909 7.38643V3.27328H69.1995C70.5919 3.27328 71.4561 4.0575 71.4561 5.33786C71.4561 6.5702 70.6079 7.38643 69.1995 7.38643H66.9909ZM69.5516 9.80311C72.3844 9.80311 74.2729 7.94659 74.2729 5.32185C74.2729 2.72913 72.3844 0.840597 69.5516 0.840597H64.9423C64.5262 0.840597 64.1741 1.17669 64.1741 1.59281V14.4444C64.1741 14.8605 64.5102 15.1966 64.9423 15.1966H66.2226C66.6388 15.1966 66.9909 14.8605 66.9909 14.4444V9.7871H69.5516V9.80311ZM86.5323 15.5327C89.6212 15.5327 92.0699 13.6442 92.0699 10.1232V1.60881C92.0699 1.1927 91.7178 0.840597 91.3177 0.840597H90.0373C89.6212 0.840597 89.2851 1.17669 89.2851 1.59281V9.91514C89.2851 11.8037 88.2448 12.7959 86.5483 12.7959C84.8839 12.7959 83.8276 11.8037 83.8276 9.91514V1.59281C83.8276 1.17669 83.4755 0.824593 83.0593 0.824593H81.779C81.3629 0.824593 81.0108 1.16069 81.0108 1.5768V10.0912C81.0268 13.6442 83.4755 15.5327 86.5323 15.5327ZM109.787 3.49734C110.203 3.49734 110.539 3.16125 110.539 2.72913V1.59281C110.539 1.17669 110.187 0.824593 109.787 0.824593H99.4159C98.9998 0.824593 98.6477 1.17669 98.6477 1.5768V2.71312C98.6477 3.12924 98.9838 3.48134 99.4159 3.48134H103.193V14.4284C103.193 14.8445 103.529 15.1806 103.945 15.1806H105.242C105.658 15.1806 106.01 14.8445 106.01 14.4284V3.48134L109.787 3.49734ZM124.815 15.2126C125.231 15.2126 125.567 14.8765 125.567 14.4604V13.3401C125.567 12.924 125.215 12.5719 124.815 12.5719H119.374V9.24295H124.223C124.639 9.24295 124.975 8.90686 124.975 8.47474V7.49846C124.975 7.08234 124.623 6.74625 124.223 6.74625H119.374V3.46533H124.815C125.231 3.46533 125.567 3.12924 125.567 2.71312V1.59281C125.567 1.17669 125.215 0.824593 124.815 0.824593H117.341C116.925 0.824593 116.589 1.17669 116.589 1.5768V14.4284C116.589 14.8445 116.925 15.1806 117.341 15.1806H124.815V15.2126ZM139.203 14.7965C139.331 15.0526 139.587 15.2126 139.875 15.2126H141.268C141.684 15.2126 142.02 14.8765 142.02 14.4604C142.02 14.3324 141.988 14.2203 141.94 14.1083L139.443 9.33898C141.332 8.79482 142.5 7.2744 142.5 5.27384C142.5 2.77714 140.723 0.856602 137.923 0.856602H132.305V14.4604C132.305 14.8765 132.641 15.2126 133.057 15.2126H134.354C134.77 15.2126 135.122 14.8765 135.122 14.4604V9.69107H136.578L139.203 14.7965ZM134.962 7.38643V3.40131H137.235C138.659 3.40131 139.491 4.18553 139.491 5.40188C139.491 6.5702 138.659 7.38643 137.235 7.38643H134.962Z" fill="black"/>
</svg>
