<svg width="130" height="15" viewBox="0 0 130 15" fill="none" xmlns="http://www.w3.org/2000/svg">
<path d="M2.61975 14.7805C3.03586 14.7805 3.38797 14.4444 3.38797 14.0123V1.16068C3.38797 0.744568 3.05187 0.39247 2.61975 0.39247H1.30739C0.891272 0.39247 0.555176 0.728564 0.555176 1.14468V13.9963C0.555176 14.4124 0.891268 14.7645 1.32339 14.7645H2.61975V14.7805ZM22.9134 14.7805C23.3296 14.7805 23.6817 14.4444 23.6817 14.0123V1.16068C23.6817 0.744568 23.3456 0.39247 22.9134 0.39247H21.6331C21.217 0.39247 20.8809 0.728564 20.8809 1.14468V9.88313L15.1993 0.856599C15.0072 0.552514 14.6871 0.376465 14.335 0.376465H12.1584C11.7423 0.376465 11.4062 0.71256 11.4062 1.12868V13.9803C11.4062 14.3964 11.7423 14.7485 12.1744 14.7485H13.4548C13.8709 14.7485 14.223 14.4124 14.223 13.9803V4.58564L20.4487 14.3164C20.6408 14.6044 20.9609 14.7805 21.297 14.7805H22.9134ZM41.4786 3.06522C41.8948 3.06522 42.2468 2.72912 42.2468 2.31301V1.17669C42.2468 0.760572 41.9108 0.408475 41.4786 0.408475H31.1077C30.6916 0.408475 30.3555 0.744568 30.3555 1.16068V2.297C30.3555 2.71312 30.6916 3.06522 31.1077 3.06522H34.8848V14.0283C34.8848 14.4444 35.2209 14.7805 35.653 14.7805H36.9494C37.3655 14.7805 37.7016 14.4444 37.7016 14.0123V3.06522H41.4786ZM57.147 14.7805C57.5631 14.7805 57.9152 14.4444 57.9152 14.0123V12.892C57.9152 12.4759 57.5791 12.1398 57.147 12.1398H51.7055V8.81082H56.5548C56.971 8.81082 57.3231 8.47473 57.3231 8.04261V7.06634C57.3231 6.65022 56.987 6.31413 56.5708 6.31413H51.7215V3.03321H57.163C57.5791 3.03321 57.9312 2.69711 57.9312 2.26499V1.14468C57.9312 0.728564 57.5951 0.376465 57.163 0.376465H49.6889C49.2728 0.376465 48.9367 0.71256 48.9367 1.12868V13.9803C48.9367 14.3964 49.2728 14.7485 49.6889 14.7485H57.147V14.7805ZM72.1912 14.3644C72.3193 14.6205 72.5913 14.7805 72.8634 14.7805H74.2558C74.6719 14.7805 75.008 14.4444 75.008 14.0123C75.008 13.8842 74.976 13.7722 74.928 13.6602L72.4313 8.89085C74.3198 8.34669 75.4882 6.82627 75.4882 4.80971C75.4882 2.31301 73.7117 0.39247 70.9109 0.39247H66.0615C65.6454 0.39247 65.3093 0.728564 65.3093 1.14468V13.9963C65.3093 14.4124 65.6454 14.7645 66.0615 14.7645H67.3579C67.774 14.7645 68.1101 14.4284 68.1101 13.9963V9.22694H69.5665L72.1912 14.3644ZM67.9501 6.95431V2.95319H70.2227C71.6471 2.95319 72.4793 3.73741 72.4793 4.95375C72.4793 6.12207 71.6471 6.9383 70.2227 6.9383H67.9501V6.95431ZM94.2454 14.7805C94.6615 14.7805 94.9976 14.4444 94.9976 14.0123V1.16068C94.9976 0.744568 94.6615 0.39247 94.2454 0.39247H92.965C92.5489 0.39247 92.1968 0.728564 92.1968 1.14468V9.88313L86.5152 0.856599C86.3232 0.568519 86.0031 0.376465 85.651 0.376465H83.4904C83.0743 0.376465 82.7222 0.71256 82.7222 1.12868V13.9803C82.7222 14.3964 83.0583 14.7485 83.4904 14.7485H84.7708C85.1869 14.7485 85.523 14.4124 85.523 13.9803V4.58564L91.7487 14.3164C91.9408 14.6044 92.2609 14.7805 92.5969 14.7805H94.2454ZM111.274 14.7805C111.69 14.7805 112.026 14.4444 112.026 14.0123V12.892C112.026 12.4759 111.69 12.1398 111.274 12.1398H105.833V8.81082H110.682C111.098 8.81082 111.434 8.47473 111.434 8.04261V7.06634C111.434 6.65022 111.098 6.31413 110.682 6.31413H105.833V3.03321H111.274C111.69 3.03321 112.026 2.69711 112.026 2.26499V1.14468C112.026 0.728564 111.69 0.376465 111.274 0.376465H103.8C103.384 0.376465 103.032 0.71256 103.032 1.12868V13.9803C103.032 14.3964 103.368 14.7485 103.8 14.7485H111.274V14.7805ZM129.215 3.06522C129.631 3.06522 129.967 2.72912 129.967 2.31301V1.17669C129.967 0.760572 129.631 0.408475 129.215 0.408475H118.844C118.428 0.408475 118.076 0.744568 118.076 1.16068V2.297C118.076 2.71312 118.412 3.06522 118.844 3.06522H122.621V14.0283C122.621 14.4444 122.957 14.7805 123.374 14.7805H124.67C125.086 14.7805 125.438 14.4444 125.438 14.0123V3.06522H129.215Z" fill="black"/>
</svg>
